<?xml version="1.0" standalone="no"?>
<!DOCTYPE svg PUBLIC "-//W3C//DTD SVG 20010904//EN"
 "http://www.w3.org/TR/2001/REC-SVG-20010904/DTD/svg10.dtd">
<svg version="1.0" xmlns="http://www.w3.org/2000/svg"
 width="1920.000000pt" height="1080.000000pt" viewBox="0 0 1920.000000 1080.000000"
 preserveAspectRatio="xMidYMid meet">

<g transform="translate(0.000000,1080.000000) scale(0.100000,-0.100000)"
fill="#000000" stroke="none">
<path d="M0 5400 l0 -5400 9600 0 9600 0 0 5400 0 5400 -9600 0 -9600 0 0
-5400z m9829 4310 c31 -5 115 -14 186 -19 156 -12 314 -30 335 -38 8 -4 49
-12 90 -19 74 -12 147 -28 265 -58 33 -8 83 -20 110 -27 28 -6 55 -15 60 -19
6 -4 30 -11 55 -15 25 -4 50 -11 55 -15 6 -4 26 -11 45 -15 19 -4 40 -11 45
-15 6 -4 25 -11 43 -15 18 -4 45 -13 60 -21 15 -8 33 -14 40 -14 7 0 20 -4 30
-10 9 -5 58 -25 107 -45 110 -44 93 -36 305 -139 215 -105 265 -133 458 -254
84 -54 161 -102 170 -107 55 -33 133 -90 176 -127 11 -10 24 -18 28 -18 5 0
27 -17 51 -39 23 -21 47 -40 54 -42 12 -4 244 -219 323 -300 40 -40 76 -80
180 -194 47 -52 104 -120 125 -149 11 -16 25 -33 30 -40 6 -6 36 -45 67 -86
32 -41 62 -80 68 -87 5 -7 10 -17 10 -23 0 -6 7 -13 15 -16 8 -4 15 -11 15
-17 0 -5 11 -25 25 -43 14 -18 25 -37 25 -42 0 -6 4 -12 8 -14 10 -4 102 -155
102 -168 0 -4 3 -10 8 -12 4 -1 18 -24 32 -50 13 -27 27 -48 30 -48 3 0 11
-15 19 -32 30 -73 75 -163 83 -166 4 -2 10 -19 14 -38 3 -19 9 -34 13 -34 4 0
15 -25 26 -55 10 -30 22 -55 27 -55 4 0 8 -8 8 -17 0 -10 7 -31 15 -46 8 -15
17 -43 21 -62 3 -19 10 -35 15 -35 5 0 9 -9 9 -19 0 -11 4 -22 9 -26 6 -3 13
-26 17 -50 3 -25 10 -48 15 -51 5 -3 9 -16 9 -29 0 -13 4 -26 10 -30 5 -3 7
-12 4 -19 -3 -8 -1 -17 5 -21 6 -3 11 -17 11 -30 0 -13 4 -26 9 -30 5 -3 13
-30 16 -60 4 -30 11 -55 16 -55 5 0 9 -15 9 -34 0 -19 5 -38 11 -42 6 -3 8
-17 5 -29 -3 -13 -2 -27 4 -30 5 -3 10 -21 10 -40 0 -19 4 -36 9 -40 5 -3 13
-46 17 -95 3 -50 11 -93 15 -96 5 -3 9 -32 9 -64 0 -34 5 -60 11 -62 16 -5 24
-639 10 -783 -16 -159 -29 -264 -40 -310 -5 -22 -15 -69 -22 -105 -8 -36 -15
-57 -17 -47 -2 9 2 41 8 70 27 121 38 224 44 422 2 89 1 138 -4 120 -5 -16
-14 -50 -20 -75 -7 -25 -15 -54 -19 -65 -47 -120 -71 -218 -71 -288 0 -42 -4
-79 -10 -82 -5 -3 -10 -29 -10 -56 0 -28 -5 -60 -12 -72 -7 -14 -12 -98 -14
-232 -3 -195 -14 -288 -37 -311 -4 -4 -7 -14 -7 -22 0 -8 -7 -29 -15 -48 -8
-19 -22 -49 -30 -68 -8 -19 -15 -39 -15 -45 0 -6 -4 -19 -9 -29 -6 -9 -22 -44
-37 -77 -37 -83 -118 -249 -124 -255 -3 -3 -14 -23 -25 -45 -11 -22 -22 -42
-25 -45 -3 -3 -18 -32 -35 -64 -16 -33 -49 -89 -72 -124 -24 -36 -43 -67 -43
-69 0 -2 -5 -9 -10 -16 -6 -7 -53 -73 -107 -147 -53 -74 -101 -140 -107 -146
-6 -7 -21 -25 -33 -41 -12 -15 -30 -38 -40 -49 -10 -12 -36 -44 -58 -70 -112
-134 -378 -395 -530 -519 -27 -22 -53 -45 -59 -50 -6 -6 -27 -22 -46 -35 -19
-13 -46 -35 -60 -47 -14 -13 -28 -23 -32 -23 -3 0 -13 -6 -20 -13 -7 -6 -40
-30 -73 -52 -33 -22 -62 -42 -65 -46 -3 -3 -23 -16 -45 -29 -22 -13 -46 -30
-53 -37 -7 -7 -20 -13 -28 -13 -8 0 -14 -4 -14 -9 0 -5 -10 -13 -22 -17 -13
-4 -25 -10 -28 -13 -6 -9 -59 -40 -135 -81 -169 -91 -205 -109 -205 -104 0 3
-13 -4 -29 -15 -31 -22 -41 -26 -41 -13 0 4 12 13 28 19 15 6 38 18 52 27 14
8 48 26 75 39 88 43 105 54 97 62 -4 5 1 5 11 2 9 -4 17 -2 17 3 0 6 7 10 15
10 8 0 15 4 15 9 0 5 11 12 24 15 14 3 38 18 55 32 17 14 31 23 31 19 0 -3 12
6 27 20 15 14 33 25 40 25 6 0 22 14 34 32 19 26 20 30 6 25 -19 -7 -22 3 -7
21 7 8 7 9 -1 3 -6 -5 -17 -7 -24 -5 -7 3 -16 1 -20 -5 -3 -6 -10 -11 -16 -11
-22 0 -5 20 46 55 30 21 55 43 55 48 0 6 3 8 6 5 12 -12 398 304 515 421 19
20 60 59 90 86 81 76 186 195 171 195 -4 0 0 6 9 13 8 7 26 33 38 58 26 51 68
88 55 47 -14 -46 27 3 116 137 8 13 41 61 73 108 56 83 158 277 172 327 6 25
13 43 33 90 6 14 20 54 33 90 21 64 24 79 33 190 3 30 7 62 10 70 3 8 7 41 10
74 3 32 9 63 15 69 5 5 7 40 4 81 -7 102 -10 107 -40 71 -24 -29 -24 -29 -18
-5 4 14 11 29 16 35 10 10 12 59 3 68 -4 3 -15 -5 -26 -18 -36 -46 -37 -25 -2
35 31 52 35 64 29 100 -4 23 -15 49 -25 58 -9 9 -23 27 -29 40 -17 33 -28 27
-36 -19 -5 -27 -11 -39 -20 -36 -7 3 -21 -12 -34 -36 -11 -23 -27 -53 -35 -67
-8 -14 -29 -54 -47 -90 -17 -36 -35 -67 -38 -70 -3 -3 -15 -22 -26 -42 -11
-21 -23 -38 -27 -38 -4 0 0 12 8 28 7 15 14 37 14 50 0 12 5 22 10 22 6 0 9 3
8 8 -2 10 17 49 47 97 14 22 28 47 32 55 23 55 53 112 86 162 14 20 17 40 14
82 -3 50 -17 92 -17 55 0 -12 -2 -11 -11 1 -8 11 -12 12 -16 2 -2 -7 -11 -19
-19 -26 -8 -8 -14 -17 -14 -21 0 -3 -9 -16 -20 -27 -11 -12 -30 -42 -42 -67
-36 -76 -82 -145 -86 -132 -3 8 -1 16 4 20 5 3 16 20 25 36 39 75 65 120 77
133 6 7 12 24 12 38 0 13 5 24 10 24 6 0 10 9 10 20 0 11 4 20 9 20 4 0 8 24
7 53 -2 54 -2 55 -85 149 -33 38 -35 38 -51 21 -10 -10 -43 -66 -73 -125 -31
-59 -82 -149 -113 -200 -31 -51 -62 -102 -68 -113 -44 -78 -294 -427 -316
-440 -4 -3 -11 2 -14 11 -8 20 12 46 27 37 6 -3 7 -1 3 5 -7 12 70 132 85 132
5 0 9 7 9 15 0 8 11 25 24 38 13 13 26 33 30 44 3 11 14 28 24 39 9 11 25 33
34 49 10 17 22 29 27 28 5 -1 6 7 3 19 -4 17 -2 20 12 15 14 -6 16 -3 11 14
-5 14 -3 19 4 15 7 -5 9 -1 5 8 -7 19 12 22 20 4 3 -7 3 -3 0 9 -6 27 13 66
28 57 6 -4 8 -3 5 3 -9 14 17 65 28 55 5 -4 5 -2 2 4 -6 10 20 76 44 114 18
28 43 85 41 93 -1 4 2 7 7 7 11 0 25 62 26 118 1 31 -3 41 -12 38 -7 -3 -13
-1 -13 5 0 13 -25 6 -25 -7 -1 -11 -50 -101 -82 -150 -13 -19 -25 -45 -29 -59
-7 -30 -34 -42 -34 -15 0 11 5 20 10 20 6 0 10 5 10 10 0 6 9 20 19 32 11 11
17 27 14 35 -3 8 0 19 8 23 7 5 11 11 8 14 -3 3 -32 -19 -64 -49 -32 -30 -63
-55 -69 -55 -6 0 -4 6 4 13 13 10 27 34 75 128 5 10 13 19 18 19 4 0 5 4 2 10
-3 6 -1 10 5 10 6 0 9 4 6 9 -3 4 3 16 14 26 29 26 25 100 -5 89 -8 -3 -12 2
-12 13 1 10 -4 17 -11 15 -8 -1 -11 2 -7 8 3 5 -5 14 -18 19 -14 6 -28 15 -32
20 -11 19 -63 13 -70 -7 -6 -21 -52 -46 -57 -32 -2 4 -28 -29 -59 -74 -31 -44
-61 -80 -68 -78 -7 1 -10 -2 -6 -8 10 -16 -6 -35 -17 -19 -6 10 -7 6 -3 -11 5
-20 -2 -34 -32 -65 -21 -22 -37 -42 -35 -45 1 -3 -19 -34 -45 -70 -65 -87
-107 -153 -105 -162 1 -5 -3 -7 -9 -5 -7 1 -25 -22 -40 -52 -16 -29 -29 -48
-29 -41 0 7 -12 -5 -26 -26 -37 -55 -151 -193 -191 -231 -18 -18 -33 -37 -33
-41 0 -4 -15 -23 -34 -42 -27 -28 -31 -37 -20 -47 7 -7 18 -13 25 -13 10 0 10
-3 2 -11 -9 -9 -16 -8 -28 5 -23 22 -31 20 -51 -13 -10 -17 -20 -28 -24 -26
-6 4 -76 -58 -99 -87 -12 -16 -11 -18 8 -18 14 0 20 4 16 13 -3 6 2 2 11 -10
16 -22 17 -22 45 -6 28 17 67 102 55 121 -2 4 -1 14 4 22 7 12 13 10 29 -9 24
-27 27 -43 8 -35 -8 3 -14 -2 -14 -10 0 -8 6 -12 15 -9 8 3 -4 -13 -27 -36
-22 -22 -45 -41 -50 -41 -5 0 -13 -9 -16 -20 -7 -24 -39 -26 -75 -5 -36 21
-58 18 -86 -10 -14 -14 -29 -25 -35 -25 -6 0 -8 -4 -5 -9 4 -5 -11 -20 -31
-32 -21 -13 -47 -31 -58 -41 -43 -38 -68 -58 -75 -58 -4 0 -20 -11 -36 -25
-16 -14 -33 -25 -38 -25 -12 0 -9 2 59 56 28 21 52 42 55 45 3 3 30 27 60 53
185 161 390 359 486 471 59 69 263 323 282 351 46 69 100 155 117 187 11 20
23 37 27 37 5 0 8 7 8 16 0 9 14 39 30 66 17 26 30 53 30 59 0 6 7 9 14 6 11
-4 13 -1 9 10 -4 11 -2 14 5 9 8 -4 10 -2 6 7 -3 8 -1 18 5 22 6 3 11 -2 11
-12 0 -10 12 5 26 32 15 28 30 54 35 60 5 5 9 14 9 20 -1 5 -10 -1 -21 -14
-24 -29 -35 -22 -18 11 26 50 29 59 24 69 -4 5 -10 7 -15 4 -5 -3 -11 -1 -15
5 -8 14 4 50 17 50 5 0 8 -7 4 -15 -8 -21 28 -20 45 1 12 15 14 14 20 -7 5
-24 5 -24 21 6 9 17 14 42 11 58 -3 17 0 34 10 45 8 9 17 28 19 41 1 14 8 26
14 28 14 5 7 -45 -9 -65 -6 -8 -6 -16 -1 -20 5 -4 8 -6 7 -3 -1 2 6 16 17 30
10 15 26 47 36 72 19 52 48 81 71 72 14 -6 14 -7 -3 -14 -10 -4 -16 -8 -11 -8
13 -2 -45 -101 -59 -101 -8 0 -14 -7 -14 -15 0 -8 -5 -15 -10 -15 -6 0 -10 -6
-9 -12 2 -7 -10 -39 -24 -70 -15 -31 -27 -63 -27 -71 0 -7 23 -24 50 -37 28
-13 56 -30 62 -37 13 -17 58 -17 59 0 0 6 5 0 10 -14 10 -28 38 -42 59 -29 12
7 21 22 57 90 11 19 24 44 30 55 7 11 18 34 25 52 7 18 21 34 31 35 10 2 26
17 34 33 9 17 20 37 25 45 47 83 88 186 88 221 0 16 5 29 10 29 6 0 10 18 10
40 0 22 4 40 9 40 6 0 6 12 1 32 -6 18 -6 36 -1 42 5 6 11 27 14 46 2 19 18
99 35 176 17 78 33 173 36 210 l6 69 -16 -65 c-8 -36 -19 -79 -25 -96 -5 -17
-9 -41 -10 -55 0 -13 -7 -40 -14 -59 -21 -54 -18 -9 6 106 11 54 22 113 24
129 12 99 15 193 9 284 -6 91 -9 102 -20 86 -13 -17 -14 -17 -15 11 0 28 -1
28 -10 6 -10 -25 -29 -21 -28 6 0 14 2 13 9 -3 8 -18 9 -17 9 6 1 27 -20 54
-33 42 -4 -4 -4 0 0 10 3 9 11 17 18 17 6 0 3 5 -6 11 -10 5 -18 18 -18 27 0
9 -5 24 -10 32 -9 13 -12 13 -24 -3 -9 -12 -16 -14 -21 -8 -3 6 0 14 9 17 21
8 -6 57 -94 168 -38 48 -70 91 -70 95 1 3 9 -4 19 -16 22 -26 36 -30 27 -7 -3
8 -2 12 3 9 6 -3 9 -13 8 -23 0 -9 7 -29 17 -44 19 -29 36 -37 36 -17 0 6 9 1
19 -12 11 -13 22 -22 25 -19 13 13 28 160 22 217 -4 38 -3 64 4 68 5 3 10 15
10 26 0 11 -4 18 -9 15 -4 -3 -6 7 -3 22 5 27 5 27 -16 9 -16 -15 -19 -24 -12
-43 8 -21 7 -24 -11 -24 -15 0 -19 -5 -15 -15 3 -8 1 -15 -5 -15 -21 0 2 82
30 106 14 13 30 24 34 24 15 0 -4 64 -25 87 -12 13 -18 29 -14 39 4 11 2 15
-8 11 -9 -4 -13 2 -13 17 0 32 -38 85 -92 129 -36 30 -52 37 -73 33 -21 -4
-30 0 -38 14 -6 11 -18 20 -28 20 -14 1 -13 4 6 20 l23 19 -26 17 c-14 9 -25
21 -25 27 0 6 -7 17 -15 26 -60 66 -88 103 -69 93 34 -18 182 -130 229 -173
40 -37 43 -38 41 -16 0 16 -6 23 -14 19 -10 -3 -11 3 -6 23 6 23 4 27 -9 22
-11 -4 -14 -2 -11 8 3 7 1 23 -6 34 -13 25 -7 27 14 5 15 -14 17 -14 22 1 5
11 -2 26 -20 44 -143 143 -186 182 -248 228 -39 29 -75 53 -80 53 -5 0 -18 8
-29 18 -10 11 -32 25 -47 33 -15 8 -38 24 -52 37 -14 12 -28 22 -32 22 -4 0
-26 13 -50 29 -63 42 -237 131 -257 131 -9 0 -22 5 -29 12 -9 9 -15 9 -23 1
-8 -8 6 -25 50 -61 33 -28 67 -56 76 -64 19 -15 19 -16 110 -111 39 -40 102
-98 140 -127 88 -68 137 -119 131 -137 -3 -8 -1 -11 4 -8 5 3 18 1 27 -5 16
-11 16 -11 1 -6 -36 11 -25 -12 35 -75 34 -35 62 -68 62 -74 0 -14 26 -59 39
-67 7 -5 7 -8 1 -8 -10 0 -45 35 -45 45 0 3 -21 27 -46 53 -47 48 -185 198
-194 211 -3 4 -27 22 -55 41 -27 19 -52 36 -55 40 -3 3 -27 19 -54 35 -27 17
-60 38 -75 48 -14 9 -34 20 -43 23 -19 7 -25 24 -9 24 5 0 40 -13 78 -30 l68
-30 -95 91 c-94 90 -233 209 -244 209 -3 0 -6 -7 -6 -16 0 -10 -6 -14 -15 -10
-8 3 -15 1 -15 -4 0 -21 -16 -8 -35 26 -17 32 -70 68 -85 59 -3 -2 -26 -6 -50
-10 -25 -4 -51 -11 -58 -17 -7 -6 -15 -8 -19 -4 -3 3 -4 7 -2 9 2 1 22 12 44
24 45 24 59 53 26 53 -12 0 -21 4 -21 9 0 5 -21 12 -46 16 -26 4 -54 11 -63
15 -9 5 -52 16 -96 25 -84 17 -153 32 -195 41 -129 28 -327 43 -315 25 3 -7
32 -30 63 -53 31 -23 65 -49 76 -59 12 -10 35 -28 53 -41 51 -37 557 -514 688
-650 112 -116 188 -209 244 -301 18 -30 20 -42 12 -50 -9 -9 -11 -8 -6 6 4 9
3 17 -3 17 -6 0 -14 10 -18 22 -7 23 -34 55 -34 41 0 -5 5 -14 11 -20 6 -6 8
-16 4 -22 -4 -7 -21 10 -43 43 -93 138 -125 176 -167 205 -62 42 -83 41 -50
-3 19 -26 19 -42 0 -26 -8 7 -15 16 -15 21 0 35 -96 97 -235 154 -22 9 -48 20
-57 25 -23 13 -45 13 -51 0 -3 -6 -4 -5 -3 2 4 17 -75 49 -91 36 -8 -6 -13 -3
-17 10 -4 10 -22 25 -42 32 -24 10 -31 16 -20 20 11 4 -1 22 -50 73 -64 67
-76 89 -36 68 13 -7 22 -7 30 1 17 17 15 31 -2 25 -8 -3 -20 1 -26 9 -7 8 -9
14 -5 14 5 0 0 9 -9 19 -10 11 -25 17 -34 14 -11 -3 -9 3 7 16 16 15 19 21 8
21 -8 0 -37 18 -63 40 -27 22 -55 40 -62 40 -9 0 -12 6 -8 15 3 8 1 15 -4 15
-6 0 -10 -5 -10 -11 0 -6 -15 -2 -35 10 -40 23 -48 12 -9 -14 14 -9 23 -19 20
-22 -3 -3 -11 1 -19 8 -8 8 -25 21 -37 29 -13 8 -38 27 -55 43 -18 15 -39 27
-46 26 -8 0 -4 -5 9 -11 12 -6 22 -15 22 -20 0 -9 -65 -1 -90 12 -8 5 -29 6
-45 4 -17 -2 -22 -1 -12 2 9 3 17 9 17 14 0 12 -64 39 -115 49 -25 5 -49 11
-52 15 -6 6 92 11 145 8 31 -1 23 19 -14 38 -16 8 -30 18 -32 23 -2 4 -11 7
-19 7 -12 0 -13 -3 -4 -14 9 -11 6 -15 -14 -18 -14 -3 -25 -1 -25 3 0 5 -5 9
-11 9 -5 0 -7 -4 -4 -10 8 -13 -11 -13 -36 0 -10 6 -48 11 -84 11 -57 1 -65 3
-65 20 0 10 6 19 13 20 6 0 2 5 -11 11 -13 6 -21 17 -18 24 4 9 -3 10 -27 3
-18 -5 -34 -9 -36 -9 -3 0 1 -6 7 -12 10 -10 15 -10 21 0 7 11 10 10 15 -3 10
-28 7 -39 -8 -26 -7 6 -22 9 -32 5 -14 -4 -15 -3 -6 4 11 7 10 11 -4 16 -9 3
-19 4 -22 1 -3 -3 0 -5 7 -5 7 0 10 -4 6 -9 -7 -12 42 -51 63 -51 8 0 12 -3 9
-7 -14 -13 30 -32 76 -33 30 0 46 -4 42 -10 -3 -5 -20 -10 -36 -10 l-30 0 24
-26 c18 -19 34 -26 61 -26 20 0 36 -4 36 -9 0 -6 -6 -9 -12 -8 -7 1 -22 1 -32
0 -18 -1 -17 -4 10 -32 16 -17 47 -40 69 -50 22 -11 31 -17 20 -14 -17 6 -17
3 4 -19 14 -15 21 -26 17 -26 -3 0 6 -13 21 -29 88 -89 118 -131 98 -131 -7 0
-67 30 -75 37 -2 2 2 8 9 12 10 6 -1 24 -44 69 -59 63 -101 88 -135 79 -11 -3
-18 -1 -14 4 3 5 -2 9 -10 9 -9 0 -16 5 -16 11 0 6 14 9 35 6 44 -6 44 3 0 42
-25 22 -46 31 -70 31 -19 0 -35 5 -35 10 0 6 7 10 15 10 24 0 17 19 -10 26
-14 3 -25 10 -25 16 0 5 -3 7 -7 5 -5 -3 -19 0 -33 5 -24 10 -24 10 -5 18 19
9 19 9 -2 16 -13 3 -20 10 -18 15 8 12 -71 50 -90 43 -13 -6 -14 -9 -3 -16 10
-7 10 -8 -2 -7 -23 4 -80 -12 -80 -21 0 -5 -7 -7 -15 -4 -24 9 -18 -24 6 -37
14 -7 48 -9 100 -4 55 5 79 4 79 -4 0 -7 -20 -11 -50 -11 -39 0 -52 -4 -60
-20 -6 -11 -9 -20 -8 -21 5 -1 46 -9 68 -12 33 -5 33 -15 1 -22 -17 -4 -31
-10 -31 -15 0 -14 26 -30 54 -32 28 -3 37 -18 10 -18 -19 0 -18 -3 31 -73 22
-31 46 -57 54 -57 10 0 11 -3 2 -14 -6 -7 -8 -22 -5 -32 6 -14 2 -12 -14 6
-19 21 -21 22 -16 5 6 -18 5 -18 -10 2 -9 12 -32 25 -51 29 -35 6 -49 24 -20
24 8 0 15 5 15 10 0 6 -9 10 -20 10 -15 0 -20 7 -20 29 0 18 -6 31 -17 35 -45
16 -60 31 -49 48 16 25 2 31 -66 30 -61 -2 -62 -1 -33 12 22 10 25 15 11 15
-10 1 -16 6 -13 14 3 9 -11 12 -54 10 -35 -1 -59 3 -59 9 0 7 -16 8 -42 4 -38
-6 -41 -5 -23 6 11 8 45 22 75 32 30 10 59 23 65 28 6 5 -14 31 -55 69 -70 65
-232 191 -238 185 -2 -2 -14 7 -28 21 -13 13 -41 32 -62 41 -20 10 -63 34 -94
55 -31 20 -61 37 -67 37 -5 0 -16 6 -23 13 -16 15 -118 65 -208 102 -36 14
-74 30 -85 35 -11 5 -67 23 -125 41 -58 17 -107 35 -110 38 -3 3 -16 7 -30 8
-14 1 -50 7 -80 13 -198 40 -619 40 -940 0 -52 -6 -102 -14 -110 -18 -8 -3
-49 -11 -90 -18 -113 -19 -198 -38 -206 -46 -4 -5 -15 -8 -24 -8 -20 0 -148
-37 -171 -50 -9 -5 -33 -12 -53 -15 -20 -4 -39 -11 -42 -16 -3 -5 -13 -9 -22
-9 -9 -1 -35 -9 -57 -20 -22 -11 -46 -19 -53 -20 -7 0 -20 -4 -30 -10 -9 -5
-39 -19 -67 -31 -204 -87 -302 -137 -459 -232 -156 -93 -197 -120 -228 -149
-10 -10 -21 -18 -25 -18 -25 0 -163 -160 -163 -189 0 -6 -4 -11 -9 -11 -5 0
-12 -13 -16 -30 -4 -16 -11 -30 -17 -30 -6 0 -7 8 -3 18 4 9 8 22 9 27 1 6 12
28 24 48 12 21 22 40 22 43 0 14 -98 -72 -147 -129 -18 -21 -33 -34 -33 -30
-1 14 -109 -110 -124 -142 -15 -30 -76 -96 -76 -81 0 4 -20 -18 -44 -51 -24
-32 -42 -61 -40 -65 3 -4 -1 -5 -8 -3 -8 3 -21 -9 -32 -30 -11 -19 -23 -35
-28 -35 -4 0 -8 -5 -8 -10 0 -6 -12 -29 -27 -53 -42 -64 -83 -148 -83 -168 0
-10 -6 -22 -14 -26 -22 -13 -166 -281 -166 -309 0 -3 -6 -20 -14 -37 -27 -60
-85 -231 -110 -322 -9 -33 -21 -73 -26 -90 -5 -16 -12 -52 -15 -80 -3 -27 -9
-63 -11 -80 l-5 -30 19 30 c24 38 169 185 182 185 6 0 10 5 10 11 0 20 73 80
93 75 14 -3 16 -2 7 9 -8 9 -8 15 0 20 5 3 10 15 10 26 0 10 5 19 11 19 6 0
27 14 47 31 41 34 102 63 102 49 0 -6 -5 -10 -12 -10 -9 0 -9 -3 -1 -11 17
-17 74 16 66 38 -5 12 -2 15 10 10 9 -3 17 -3 17 2 0 4 12 13 26 19 15 7 22
17 18 24 -5 7 -2 9 7 6 22 -8 65 -18 52 -12 -19 9 -16 27 4 20 9 -4 25 1 37
13 12 10 50 28 86 39 80 25 175 66 184 80 4 6 14 8 24 5 9 -3 13 -2 9 2 -8 9
54 32 108 40 16 3 62 20 102 40 39 19 75 35 78 35 4 0 39 16 79 35 40 19 78
35 85 35 6 0 11 5 11 10 0 6 7 10 16 10 19 0 86 30 95 43 6 8 110 36 137 37 7
0 11 -4 7 -10 -3 -5 -12 -7 -20 -3 -8 3 -15 1 -15 -5 0 -5 -16 -13 -36 -17
-20 -3 -44 -10 -53 -15 -9 -5 -56 -28 -106 -52 -74 -35 -86 -43 -65 -47 l25
-4 -25 -6 c-14 -4 -26 -15 -28 -26 -3 -19 -2 -19 8 -2 10 15 14 16 28 5 12
-10 14 -10 8 0 -5 8 0 12 14 12 12 0 18 5 15 10 -3 6 -1 10 5 10 7 0 10 6 7
14 -4 11 2 14 24 14 35 -1 35 -2 7 -28 l-22 -20 62 4 c34 3 79 8 99 12 31 6
34 8 18 15 -16 6 -14 8 12 8 17 1 35 6 38 11 3 6 22 10 41 10 19 0 42 8 52 18
22 21 80 43 87 32 3 -4 -14 -15 -37 -25 -23 -9 -53 -26 -67 -37 l-26 -21 65 8
c36 4 135 6 220 6 168 -2 292 7 285 19 -6 10 -112 28 -225 39 l-85 8 72 2 c39
0 75 6 78 11 8 13 65 13 65 1 0 -5 -8 -11 -17 -13 -10 -2 25 -4 77 -4 70 -1
121 -8 195 -28 55 -16 121 -33 147 -39 25 -7 50 -15 54 -20 4 -4 15 -7 24 -7
39 0 409 -118 535 -170 55 -23 118 -38 132 -33 10 4 14 2 10 -4 -4 -6 15 -22
46 -36 93 -45 226 -107 231 -107 12 0 196 -92 201 -100 3 -6 19 -10 36 -10 16
0 37 -4 47 -9 9 -5 49 -14 87 -19 120 -18 237 -48 295 -79 14 -7 30 -13 37
-13 6 0 13 -4 15 -8 2 -4 34 -21 72 -37 72 -31 101 -55 142 -117 28 -43 30
-58 9 -58 -18 0 -19 -5 -1 -62 8 -27 10 -52 5 -59 -5 -8 -9 -26 -9 -40 0 -44
-105 -149 -150 -149 -5 0 -10 7 -10 15 0 8 8 15 19 15 31 0 81 59 81 96 0 18
4 44 10 59 8 21 5 35 -14 73 -13 26 -32 54 -42 63 -25 23 -93 60 -125 69 l-25
7 4 -59 c4 -51 0 -68 -24 -116 -16 -31 -33 -63 -39 -71 -26 -34 -124 -130
-160 -156 -27 -19 -16 -5 33 43 45 45 72 78 68 87 -3 8 0 17 6 21 7 5 8 2 3
-6 -5 -9 -4 -11 4 -6 6 4 8 12 5 18 -4 6 -2 13 3 17 20 13 60 111 55 136 -2
14 -17 39 -32 55 -16 17 -26 30 -23 30 17 0 -61 60 -84 65 -15 4 -39 11 -52
16 -13 5 -88 12 -167 16 -158 7 -174 2 -174 -48 0 -15 -4 -31 -10 -34 -9 -6
-11 2 -14 60 -1 12 -9 21 -21 23 -50 7 -354 -34 -382 -51 -10 -6 -6 -24 12
-74 14 -36 25 -70 25 -77 0 -18 -37 57 -51 102 -12 41 -13 42 -48 36 -20 -3
-45 -9 -56 -14 -57 -25 -157 -74 -215 -105 -56 -31 -102 -44 -160 -46 -23 -1
-72 -21 -102 -41 -14 -10 -34 -18 -45 -18 -15 0 -16 -2 -3 -11 12 -9 11 -10
-4 -5 -13 5 -47 -7 -95 -31 -42 -21 -78 -40 -81 -44 -3 -3 -43 -28 -90 -56
-90 -54 -169 -111 -234 -165 -21 -18 -46 -37 -55 -42 -29 -16 32 44 89 87 30
23 61 48 68 55 8 6 35 26 60 44 26 18 56 40 66 50 20 18 20 18 0 18 -15 0 -16
2 -4 10 8 5 11 12 7 17 -8 8 -88 -29 -119 -55 -10 -9 -18 -10 -18 -5 0 6 24
26 53 44 28 18 54 36 57 40 3 3 23 12 45 19 22 7 46 17 53 23 6 5 12 7 12 4 0
-3 66 28 148 69 81 40 153 74 160 74 6 0 12 5 12 10 0 6 7 10 16 10 10 0 14 6
11 14 -4 10 1 13 16 10 21 -4 21 -4 2 5 -11 5 -30 7 -42 4 -13 -3 -23 0 -23 6
0 6 5 11 12 11 9 0 9 3 1 11 -8 8 -28 5 -74 -11 -113 -39 -366 -169 -382 -196
-4 -8 -13 -14 -19 -14 -19 0 -155 -97 -257 -182 -108 -91 -271 -256 -271 -275
0 -7 -5 -13 -11 -13 -6 0 -8 -7 -5 -16 3 -8 2 -13 -2 -10 -5 3 -15 -4 -23 -15
-8 -12 -22 -31 -33 -42 -23 -27 -106 -155 -106 -164 0 -3 -6 -14 -14 -22 -19
-21 -96 -172 -96 -188 0 -7 -3 -13 -8 -13 -4 0 -12 -15 -18 -32 -6 -18 -23
-64 -37 -103 -62 -166 -86 -325 -88 -570 l-2 -200 -14 105 c-11 82 -12 135 -4
240 11 142 26 252 40 285 5 11 14 46 21 79 7 32 25 88 41 123 16 36 29 71 29
79 0 8 4 14 9 14 5 0 12 14 16 30 4 17 10 30 15 30 5 0 11 14 15 30 4 17 10
30 13 30 4 0 16 19 27 43 17 37 56 104 78 132 4 6 27 38 52 72 108 151 305
353 458 470 115 88 330 222 452 283 17 8 32 17 35 20 3 3 32 18 64 35 63 31
139 102 132 121 -5 14 26 13 36 -1 5 -6 8 -5 8 3 0 6 7 12 15 12 9 0 15 9 15
24 0 15 7 26 20 29 13 3 18 11 14 20 -10 26 13 28 24 2 7 -14 17 -25 23 -25
15 0 69 33 69 42 0 4 10 8 23 8 l22 -1 -25 -19 c-14 -11 -30 -24 -37 -30 -7
-5 -16 -10 -21 -10 -14 0 -36 -29 -37 -51 -2 -23 5 -22 122 24 68 26 82 35 77
49 -3 10 -1 18 5 18 6 0 11 -5 11 -10 0 -22 48 -28 140 -17 63 7 88 13 75 18
-12 4 18 8 73 8 81 1 92 3 92 19 0 31 -33 58 -83 68 -12 2 -46 9 -74 15 -29 6
-62 7 -74 4 -12 -4 -27 -1 -37 8 -19 17 -132 34 -132 21 0 -5 11 -21 25 -36
23 -25 32 -48 19 -48 -3 0 -13 9 -22 19 -20 23 -62 37 -62 21 0 -6 5 -8 10 -5
6 3 10 1 10 -4 0 -6 7 -11 16 -11 11 0 14 -6 8 -22 -10 -35 -12 -35 -50 5 -20
20 -40 34 -45 31 -5 -3 -9 0 -9 7 0 8 -4 8 -13 1 -8 -7 -17 -6 -30 3 -14 10
-15 14 -5 18 11 5 0 6 -74 11 -23 1 -35 16 -13 16 10 0 16 3 13 6 -3 3 -32 0
-65 -6 -32 -7 -69 -14 -83 -15 -14 -2 -36 -7 -50 -13 -27 -10 -50 -6 -50 9 0
4 14 6 30 2 19 -3 30 -1 30 6 0 6 16 11 35 11 19 0 35 5 35 10 0 6 18 10 39
10 22 0 42 4 45 9 7 11 -130 4 -153 -8 -9 -5 -41 -11 -71 -15 -54 -7 -146 -29
-185 -45 -11 -5 -54 -19 -95 -31 -41 -12 -84 -28 -95 -35 -11 -7 -38 -15 -60
-18 -22 -3 -32 -3 -22 -1 19 6 22 20 6 29 -5 4 -8 12 -6 18 2 6 -10 24 -27 39
-44 40 -28 43 22 3 40 -31 82 -38 82 -13 0 6 9 8 19 5 14 -3 18 -1 14 9 -4 10
4 14 32 14 21 0 34 -4 30 -10 -4 -6 7 -10 24 -10 17 0 31 5 31 10 0 6 12 10
26 10 21 0 24 3 15 14 -9 11 -2 13 44 11 30 -2 55 1 55 6 0 5 10 9 23 9 12 0
28 4 35 9 10 6 8 10 -10 16 -26 8 -29 7 107 41 39 10 72 21 75 24 3 4 11 9 18
11 18 6 -64 49 -93 49 -13 0 -37 11 -53 25 -17 14 -44 28 -61 31 -17 4 -34 10
-37 15 -2 4 -11 6 -19 2 -8 -3 -15 0 -15 5 0 6 -15 11 -32 11 -61 1 -153 13
-163 21 -20 16 -463 17 -490 2 -18 -11 -50 -11 -76 -1 -19 8 -40 6 -75 -5 -27
-8 -39 -15 -27 -15 30 -1 40 -21 11 -21 -13 0 -36 -7 -52 -15 -34 -18 -73 -19
-78 -3 -3 9 -12 9 -35 -1 -22 -9 -30 -18 -26 -28 5 -12 1 -14 -15 -8 -15 4
-22 2 -22 -7 0 -7 -15 -20 -33 -28 -20 -9 -33 -24 -35 -37 -2 -13 -8 -23 -13
-23 -5 0 -9 -20 -9 -45 0 -45 0 -45 35 -45 19 0 35 -4 35 -10 0 -5 -12 -10
-27 -10 -16 0 -37 -7 -47 -15 -14 -11 -23 -12 -32 -4 -20 16 -70 1 -88 -27 -9
-13 -24 -24 -34 -25 -9 0 -12 -3 -6 -5 17 -7 -14 -84 -31 -78 -26 10 -30 -97
-5 -131 12 -17 21 -63 12 -69 -5 -3 -15 10 -22 29 -16 40 -25 43 -41 14 -7
-14 -17 -19 -30 -16 -22 6 -38 -14 -93 -118 -21 -38 -41 -72 -46 -75 -5 -3
-20 -36 -34 -73 -14 -37 -20 -65 -14 -61 7 5 9 2 5 -9 -3 -9 3 -27 14 -41 11
-14 16 -26 10 -26 -6 0 -11 3 -11 8 0 4 -12 12 -26 19 -24 11 -26 10 -40 -22
-8 -19 -14 -39 -14 -45 0 -5 -4 -10 -10 -10 -5 0 -10 -10 -10 -22 0 -16 -3
-19 -11 -11 -8 8 -9 20 -1 43 6 17 9 37 6 45 -4 8 -2 15 4 15 14 0 8 63 -8 86
-9 12 -25 20 -37 19 -15 -1 -23 5 -28 22 -3 13 -11 23 -18 23 -6 0 -25 7 -42
16 -16 9 -45 17 -62 18 -28 2 -32 -1 -28 -19 3 -11 2 -14 -1 -7 -9 19 -24 14
-24 -7 0 -11 -4 -22 -9 -26 -12 -7 -41 -133 -41 -175 0 -17 -6 -33 -14 -36
-10 -4 -12 -18 -9 -52 l5 -47 -17 30 c-12 22 -18 61 -20 145 -3 72 -1 106 4
90 9 -25 9 -24 9 5 0 17 -4 41 -8 55 -8 24 -8 24 -9 3 -1 -25 -21 -32 -21 -9
0 27 -42 86 -71 101 -75 39 -218 -8 -314 -104 -27 -28 -55 -51 -61 -51 -6 0
-35 -27 -65 -61 -30 -33 -56 -62 -58 -64 -2 -2 -5 -35 -7 -72 -3 -63 -2 -66
12 -48 8 11 17 31 20 45 9 42 26 80 35 80 5 0 9 8 9 18 0 16 39 75 40 59 0 -4
-9 -27 -21 -50 -11 -23 -22 -62 -24 -87 -1 -27 -7 -44 -14 -43 -6 2 -11 -4
-11 -12 0 -8 -4 -15 -10 -15 -5 0 -7 -8 -4 -17 5 -15 4 -15 -5 -3 -8 12 -11
12 -17 -4 -5 -12 -9 -14 -14 -6 -7 11 -18 -100 -26 -269 -2 -46 -7 -87 -10
-90 -4 -3 -4 29 -1 72 3 42 2 77 -3 77 -5 0 -10 8 -13 18 -2 9 -7 -6 -12 -35
-6 -41 -10 -49 -20 -40 -12 12 -12 24 0 112 6 40 6 40 -10 15 l-16 -25 7 35
c3 19 10 40 15 46 4 5 6 20 2 32 -3 13 -1 22 6 22 5 0 8 7 5 15 -4 8 -1 22 6
30 14 17 5 34 -10 19 -24 -24 -78 -145 -88 -199 -26 -130 -42 -736 -27 -977 6
-85 18 -160 33 -198 3 -8 7 -33 8 -55 5 -85 34 -272 48 -310 8 -22 18 -62 22
-90 9 -68 12 -83 23 -119 5 -17 12 -51 14 -76 l5 -45 -14 50 c-8 28 -19 58
-25 69 -6 10 -12 30 -14 45 -6 48 -68 292 -72 287 -3 -3 -6 -29 -8 -58 -1 -29
-4 -73 -5 -98 l-2 -45 -13 63 c-7 34 -16 66 -19 70 -4 4 -5 -5 -1 -21 5 -17 3
-27 -4 -27 -6 0 -8 -7 -5 -15 3 -8 -1 -24 -10 -37 -15 -21 -16 -21 -16 -3 -1
20 -1 20 -16 0 -23 -30 -5 -159 25 -182 13 -9 14 -14 4 -24 -16 -16 -17 -33
-2 -23 6 3 10 -1 9 -12 -5 -44 1 -98 8 -86 6 8 12 -3 19 -32 7 -33 7 -44 -1
-39 -6 4 -3 -3 7 -14 11 -13 14 -23 8 -27 -6 -4 -4 -16 5 -34 7 -15 14 -35 14
-44 0 -10 5 -18 10 -18 6 0 10 -9 10 -20 0 -11 4 -28 10 -38 17 -30 50 -111
50 -121 0 -5 5 -13 12 -17 8 -5 9 -2 3 12 -10 25 -42 135 -58 204 -11 43 -11
60 -1 78 11 23 12 23 18 -12 4 -20 11 -36 16 -36 6 0 10 -11 10 -25 0 -14 4
-25 9 -25 5 0 12 -17 16 -37 27 -151 198 -565 284 -693 17 -25 31 -51 31 -58
0 -7 5 -10 11 -6 8 4 9 0 4 -15 -5 -16 -3 -20 9 -15 10 4 13 0 10 -13 -3 -11
19 -54 58 -113 69 -105 234 -326 249 -336 5 -3 7 -10 4 -15 -4 -5 -2 -9 3 -9
4 0 33 -30 63 -67 30 -36 61 -74 70 -83 9 -10 18 -21 20 -26 4 -10 216 -214
295 -284 124 -111 240 -200 414 -317 80 -54 148 -102 152 -108 4 -5 8 -6 8 -2
0 4 15 -3 33 -16 17 -13 39 -27 47 -31 8 -3 35 -18 60 -32 69 -40 352 -184
362 -184 4 0 31 -11 60 -25 28 -14 58 -25 65 -25 7 0 13 -5 13 -10 0 -6 3 -9
8 -8 4 0 16 -3 27 -7 125 -52 207 -81 224 -80 11 1 18 -2 15 -6 -2 -4 12 -11
33 -15 21 -4 44 -12 52 -18 12 -9 13 -8 6 3 -6 11 -2 11 21 -1 61 -33 82 -40
93 -34 6 4 11 2 11 -3 0 -6 11 -11 25 -11 14 0 33 -4 43 -9 9 -5 33 -14 52
-19 l35 -10 -36 -1 c-20 -1 -65 8 -99 19 -34 11 -70 20 -79 20 -9 0 -21 4 -26
9 -6 4 -28 13 -50 19 -82 21 -338 117 -465 174 -75 34 -295 141 -300 147 -3 3
-27 17 -55 31 -27 14 -52 28 -55 31 -3 3 -45 29 -95 59 -49 29 -134 83 -188
119 -55 36 -106 71 -115 76 -9 6 -27 20 -41 33 -14 12 -29 22 -33 22 -3 0 -13
6 -20 13 -7 8 -36 31 -64 53 -114 88 -203 162 -274 228 -127 119 -310 310
-310 323 0 7 -4 13 -9 13 -9 0 -82 83 -141 160 -14 18 -33 40 -42 49 -10 8
-18 19 -18 24 0 4 -5 13 -10 20 -6 7 -31 39 -55 72 -25 33 -49 65 -55 72 -5 7
-10 14 -10 17 0 8 -64 101 -72 104 -5 2 -8 8 -8 14 0 6 -10 25 -22 42 -13 17
-32 49 -43 71 -11 22 -22 42 -25 45 -6 6 -29 49 -84 155 -22 44 -45 83 -49 86
-5 3 -9 9 -9 12 0 18 -11 47 -18 47 -4 0 -11 16 -14 35 -4 19 -11 35 -16 35
-4 0 -11 13 -15 30 -4 16 -17 51 -31 77 -13 27 -24 55 -24 64 0 8 -4 19 -9 25
-4 5 -17 34 -27 64 -10 30 -22 60 -26 65 -4 6 -10 30 -14 53 -4 23 -10 42 -15
42 -5 0 -9 8 -9 19 0 20 -27 116 -40 141 -4 9 -11 36 -15 60 -4 25 -11 50 -15
55 -4 6 -10 28 -13 50 -3 22 -9 51 -12 65 -29 109 -67 352 -81 510 -12 133
-15 559 -4 675 15 175 47 390 75 510 34 142 61 251 74 295 15 51 37 123 43
140 2 8 15 47 28 85 12 39 31 88 41 109 11 22 19 44 19 49 0 5 14 39 31 76 17
36 34 75 39 86 18 43 124 260 129 265 3 3 20 32 37 65 34 67 173 297 184 305
4 3 20 25 35 50 27 44 195 266 245 325 148 173 431 457 523 525 11 8 43 36 72
63 29 26 55 47 60 47 4 0 25 16 47 35 21 20 50 41 64 47 13 6 24 15 24 19 0 5
13 15 29 24 16 8 35 20 43 27 19 19 95 69 128 84 8 4 17 10 20 14 4 6 75 50
179 111 25 15 123 69 191 105 14 8 31 14 38 14 6 0 12 5 12 10 0 6 5 10 11 10
9 0 49 17 214 95 100 47 144 65 159 65 9 0 16 4 16 10 0 5 18 13 40 16 22 4
40 10 40 14 0 4 16 11 35 14 19 4 47 13 62 21 15 8 36 15 45 15 9 0 19 4 23 9
3 6 26 13 50 17 25 3 48 10 50 15 3 4 26 11 50 15 25 3 47 10 50 14 3 5 28 11
55 15 27 4 52 11 55 15 3 4 29 11 58 15 28 4 57 11 62 15 6 4 35 11 65 14 30
4 64 11 75 16 24 10 127 28 250 41 50 6 97 14 106 19 9 5 79 12 155 16 77 3
146 10 154 15 21 12 542 11 609 -1z m164 -1000 c-3 -12 -8 -19 -11 -16 -5 6 5
36 12 36 2 0 2 -9 -1 -20z m133 -182 c20 1 34 -1 31 -5 -15 -14 49 -32 131
-38 130 -9 177 -16 163 -24 -6 -4 -26 -7 -44 -5 -47 4 -187 -17 -187 -28 0 -5
10 -6 23 -3 15 4 18 3 8 -3 -14 -10 2 -28 17 -18 5 3 22 1 38 -4 l29 -8 -30
-2 c-16 -1 -46 -8 -65 -15 l-35 -13 51 -1 c28 -1 72 -4 97 -7 100 -14 26 -22
-205 -23 -134 0 -262 -4 -286 -7 -23 -3 -71 -3 -107 1 -49 5 -63 10 -58 21 3
8 19 14 39 14 33 0 46 14 22 23 -7 3 33 6 88 6 79 1 104 4 115 17 7 8 30 24
50 35 47 24 57 39 30 46 -29 7 -26 21 5 25 l25 3 -20 22 c-30 32 -26 37 9 12
19 -15 42 -22 66 -21z m904 2 c0 -13 -50 -13 -70 0 -11 7 -4 10 28 10 23 0 42
-4 42 -10z m901 -80 c17 0 28 -4 25 -9 -3 -4 25 -16 62 -26 62 -17 142 -51
142 -61 0 -8 -53 7 -118 32 -63 24 -118 32 -107 14 3 -5 -9 -3 -26 4 -21 9
-33 21 -34 35 -1 15 3 20 12 16 8 -3 28 -5 44 -5z m-478 -117 c21 -26 20 -26
-20 6 -23 18 -44 40 -47 48 -8 20 39 -17 67 -54z m507 17 c0 -13 -11 -13 -30
0 -12 8 -11 10 8 10 12 0 22 -4 22 -10z m-5573 -22 c-3 -8 -6 -5 -6 6 -1 11 2
17 5 13 3 -3 4 -12 1 -19z m5810 16 c-3 -3 -12 -4 -19 -1 -8 3 -5 6 6 6 11 1
17 -2 13 -5z m51 -25 c3 -12 2 -12 -6 0 -6 8 -15 10 -22 6 -9 -5 -11 -4 -6 4
10 15 28 10 34 -10z m-1663 1 c3 -5 2 -10 -4 -10 -5 0 -13 5 -16 10 -3 6 -2
10 4 10 5 0 13 -4 16 -10z m1787 -43 c64 -31 67 -34 53 -53 -10 -13 -14 -15
-15 -5 0 8 -3 11 -7 8 -3 -4 -16 1 -27 12 -12 10 -34 25 -50 32 -28 13 -47 39
-29 39 4 0 38 -15 75 -33z m-1438 -8 c-3 -5 -10 -7 -15 -3 -5 3 -7 10 -3 15 3
5 10 7 15 3 5 -3 7 -10 3 -15z m31 1 c3 -5 1 -10 -4 -10 -6 0 -11 5 -11 10 0
6 2 10 4 10 3 0 8 -4 11 -10z m213 -45 c3 -3 -4 -5 -16 -5 -11 0 -23 4 -27 9
-6 10 33 6 43 -4z m55 -12 c-7 -2 -21 -2 -30 0 -10 3 -4 5 12 5 17 0 24 -2 18
-5z m62 -13 c-3 -5 -13 -10 -21 -10 -8 0 -14 5 -14 10 0 6 9 10 21 10 11 0 17
-4 14 -10z m48 -17 c-7 -2 -19 -2 -25 0 -7 3 -2 5 12 5 14 0 19 -2 13 -5z
m1042 -11 c-3 -3 -11 0 -18 7 -9 10 -8 11 6 5 10 -3 15 -9 12 -12z m-928 -18
c-3 -3 -12 -4 -19 -1 -8 3 -5 6 6 6 11 1 17 -2 13 -5z m1469 -36 l19 -23 -25
20 c-14 11 -27 21 -29 22 -2 2 0 3 6 3 5 0 18 -10 29 -22z m-1373 5 c-7 -2
-19 -2 -25 0 -7 3 -2 5 12 5 14 0 19 -2 13 -5z m-570 -38 c4 -8 2 -17 -2 -20
-5 -2 -11 4 -14 15 -6 23 8 27 16 5z m1992 -13 c-3 -3 -11 0 -18 7 -9 10 -8
11 6 5 10 -3 15 -9 12 -12z m-1979 -89 c-8 -64 -16 -67 -16 -5 0 30 5 52 10
52 7 0 9 -17 6 -47z m754 11 c0 -3 -7 -1 -15 6 -8 7 -15 17 -15 22 0 5 7 3 15
-6 8 -8 15 -18 15 -22z m1311 -11 c13 -16 12 -17 -3 -4 -10 7 -18 15 -18 17 0
8 8 3 21 -13z m-1270 -40 c13 -16 12 -17 -3 -4 -10 7 -18 15 -18 17 0 8 8 3
21 -13z m-2896 -3 c179 -15 230 -25 370 -73 148 -52 235 -134 235 -224 0 -44
-44 -100 -88 -112 -46 -13 -62 -14 -42 -1 8 5 15 18 16 29 1 20 -7 20 -56 -6
-30 -15 -108 -17 -144 -3 -25 9 -38 50 -16 50 5 0 6 -8 3 -17 -6 -16 -5 -16
10 -4 9 7 24 11 32 7 8 -3 16 -5 18 -4 1 1 12 -4 23 -10 46 -25 114 45 100
102 -9 36 -45 76 -69 76 -13 0 -27 9 -32 21 -13 27 -113 80 -177 94 -18 4 -37
11 -43 15 -26 20 -199 31 -324 19 -69 -6 -130 -15 -136 -19 -5 -4 -22 -6 -37
-4 -16 1 -28 -2 -28 -7 0 -5 -8 -9 -18 -9 -10 0 -22 -3 -26 -7 -7 -7 -132 -41
-155 -42 -27 -1 3 17 34 21 26 4 27 5 10 12 -59 23 -58 25 15 26 41 0 93 5
115 11 22 6 47 11 55 13 8 1 16 5 18 9 9 27 -3 29 -135 24 -113 -5 -125 -4
-64 4 41 5 76 11 79 14 8 8 337 4 457 -5z m4220 -10 c10 -11 16 -20 13 -20 -3
0 -13 9 -23 20 -10 11 -16 20 -13 20 3 0 13 -9 23 -20z m-2248 -12 c-3 -8 -6
-5 -6 6 -1 11 2 17 5 13 3 -3 4 -12 1 -19z m-2590 -4 c-12 -12 -87 -16 -87 -4
0 5 21 10 47 10 25 0 43 -3 40 -6z m2709 -20 c-3 -9 -6 -29 -6 -45 0 -16 -4
-29 -10 -29 -11 0 -14 73 -3 83 12 13 25 7 19 -9z m-2828 -1 c-10 -2 -26 -2
-35 0 -10 3 -2 5 17 5 19 0 27 -2 18 -5z m-68 -13 c0 -5 -9 -10 -21 -10 -11 0
-17 5 -14 10 3 6 13 10 21 10 8 0 14 -4 14 -10z m-85 -21 c-22 -4 -58 -12 -80
-18 -50 -13 -65 -14 -65 -2 0 5 24 12 53 16 28 4 58 11 65 15 8 4 26 4 40 1
25 -5 23 -6 -13 -12z m2880 11 c3 -5 1 -10 -4 -10 -6 0 -11 5 -11 10 0 6 2 10
4 10 3 0 8 -4 11 -10z m-2235 -45 c31 -12 32 -14 10 -14 -14 0 -43 6 -65 14
-38 13 -39 14 -10 14 17 0 46 -7 65 -14z m80 -19 c0 -2 -9 -6 -20 -9 -11 -3
-18 -1 -14 4 5 9 34 13 34 5z m2227 -28 c-3 -7 -5 -2 -5 12 0 14 2 19 5 13 2
-7 2 -19 0 -25z m-2182 12 c3 -5 2 -10 -4 -10 -5 0 -13 5 -16 10 -3 6 -2 10 4
10 5 0 13 -4 16 -10z m3303 -32 l12 -33 -20 25 c-21 27 -25 40 -12 40 4 0 13
-15 20 -32z m-4621 16 c-3 -3 -12 -4 -19 -1 -8 3 -5 6 6 6 11 1 17 -2 13 -5z
m1360 0 c-3 -3 -12 -4 -19 -1 -8 3 -5 6 6 6 11 1 17 -2 13 -5z m40 -10 c-3 -3
-12 -4 -19 -1 -8 3 -5 6 6 6 11 1 17 -2 13 -5z m-1510 -20 c-3 -3 -12 -4 -19
-1 -8 3 -5 6 6 6 11 1 17 -2 13 -5z m3572 -124 c-1 -82 -20 -210 -31 -210 -5
0 -6 23 -2 51 11 80 11 89 14 189 1 74 4 88 11 65 5 -16 8 -59 8 -95z m1060
38 c6 -16 8 -28 6 -28 -4 0 -55 91 -55 99 1 12 40 -45 49 -71z m-569 28 c0 -8
-4 -18 -10 -21 -5 -3 -10 3 -10 14 0 12 5 21 10 21 6 0 10 -6 10 -14z m-4095
-16 c-28 -12 -47 -12 -40 0 3 6 18 10 33 9 24 0 25 -1 7 -9z m140 1 c-15 -13
-73 -22 -80 -11 -6 10 17 17 60 19 17 1 25 -3 20 -8z m5625 -1 c0 -5 -2 -10
-4 -10 -3 0 -8 5 -11 10 -3 6 -1 10 4 10 6 0 11 -4 11 -10z m-5502 -17 c-10
-2 -26 -2 -35 0 -10 3 -2 5 17 5 19 0 27 -2 18 -5z m5532 -23 c0 -5 -2 -10 -4
-10 -3 0 -8 5 -11 10 -3 6 -1 10 4 10 6 0 11 -4 11 -10z m-5865 -20 c-3 -5
-11 -10 -16 -10 -6 0 -7 5 -4 10 3 6 11 10 16 10 6 0 7 -4 4 -10z m-545 -18
c-8 -3 -25 -14 -37 -25 -13 -11 -23 -18 -23 -14 0 13 54 56 64 50 6 -4 4 -8
-4 -11z m5330 -30 c0 -3 -9 3 -20 13 -11 10 -20 23 -20 28 0 6 9 0 20 -13 11
-13 20 -25 20 -28z m90 -2 c13 -8 13 -10 -2 -10 -9 0 -20 5 -23 10 -8 13 5 13
25 0z m-6385 -30 c3 -5 1 -10 -4 -10 -6 0 -11 5 -11 10 0 6 2 10 4 10 3 0 8
-4 11 -10z m6720 -10 c3 -5 1 -10 -4 -10 -6 0 -11 5 -11 10 0 6 2 10 4 10 3 0
8 -4 11 -10z m-5160 -30 c-3 -5 -17 -10 -31 -10 -13 0 -24 5 -24 10 0 6 14 10
31 10 17 0 28 -4 24 -10z m5566 -67 l24 -27 -24 15 c-14 9 -27 21 -29 27 -6
19 3 14 29 -15z m-5798 10 c-7 -2 -19 -2 -25 0 -7 3 -2 5 12 5 14 0 19 -2 13
-5z m5487 -3 c0 -5 -2 -10 -4 -10 -3 0 -8 5 -11 10 -3 6 -1 10 4 10 6 0 11 -4
11 -10z m-1673 -82 c-3 -7 -5 -2 -5 12 0 14 2 19 5 13 2 -7 2 -19 0 -25z
m-3432 12 c-3 -5 -12 -10 -18 -10 -7 0 -6 4 3 10 19 12 23 12 15 0z m-1225
-30 c0 -5 -4 -10 -10 -10 -5 0 -10 5 -10 10 0 6 5 10 10 10 6 0 10 -4 10 -10z
m1275 -5 c22 -8 67 -18 100 -21 52 -6 56 -8 35 -17 l-25 -10 28 -10 c28 -11
34 -22 18 -32 -11 -6 -57 12 -90 37 -13 10 -39 18 -57 18 -18 0 -39 7 -48 15
-8 8 -24 15 -36 15 -12 0 -18 5 -15 10 9 14 42 12 90 -5z m3375 -4 c0 -6 -4
-13 -10 -16 -5 -3 -10 1 -10 9 0 9 5 16 10 16 6 0 10 -4 10 -9z m-4806 -35
c-3 -8 -16 -16 -30 -19 -28 -5 -31 1 -6 19 23 18 43 18 36 0z m4771 -52 c-17
-34 -20 -18 -4 23 6 15 13 23 15 17 3 -6 -2 -24 -11 -40z m-2470 -34 c3 -5 -1
-10 -9 -10 -8 0 -18 5 -21 10 -3 6 1 10 9 10 8 0 18 -4 21 -10z m2455 -7 c0
-5 -7 -17 -15 -27 -15 -20 -20 -10 -9 18 6 16 24 22 24 9z m-2705 -13 c3 -6
-4 -10 -17 -10 -18 0 -20 2 -8 10 19 12 18 12 25 0z m287 -42 c-7 -7 -12 -8
-12 -2 0 14 12 26 19 19 2 -3 -1 -11 -7 -17z m4262 -33 c7 -45 2 -38 -13 19
-6 22 -6 35 -1 30 4 -5 11 -27 14 -49z m-1874 28 c-1 -16 -30 -46 -37 -38 -5
4 -2 10 5 12 6 3 12 11 12 19 0 8 5 14 10 14 6 0 10 -3 10 -7z m-3090 -43 c0
-5 -7 -10 -15 -10 -8 0 -15 -5 -15 -11 0 -5 -5 -7 -10 -4 -8 5 -7 11 1 21 13
16 39 19 39 4z m3044 -34 c-3 -9 -10 -13 -15 -10 -5 3 -3 11 4 19 15 16 19 13
11 -9z m-3104 4 c0 -5 -4 -10 -10 -10 -5 0 -10 5 -10 10 0 6 5 10 10 10 6 0
10 -4 10 -10z m-50 -23 c-14 -8 -27 -12 -30 -10 -7 6 23 23 40 23 8 0 4 -6
-10 -13z m-103 -53 c-3 -3 -12 -4 -19 -1 -8 3 -5 6 6 6 11 1 17 -2 13 -5z
m5200 -31 c-3 -10 -5 -4 -5 12 0 17 2 24 5 18 2 -7 2 -21 0 -30z m-1202 -52
c-3 -6 -11 -11 -17 -11 -6 0 -6 6 2 15 14 17 26 13 15 -4z m-4251 -62 c-27
-17 -50 -35 -52 -40 -2 -5 -8 -9 -14 -9 -6 0 -29 -16 -52 -35 -66 -56 -70 -59
-101 -78 l-30 -18 31 28 c17 15 50 44 74 62 23 19 48 40 54 46 6 6 18 14 26
18 28 13 55 32 63 45 4 6 18 12 29 12 16 0 9 -8 -28 -31z m3366 12 c0 -8 -43
-41 -55 -41 -3 0 2 11 11 25 16 24 44 34 44 16z m-1393 -73 c-3 -8 -6 -5 -6 6
-1 11 2 17 5 13 3 -3 4 -12 1 -19z m2053 -19 c24 -14 -38 -10 -100 6 l-55 14
70 -6 c39 -3 77 -9 85 -14z m108 -26 c6 -19 -26 -27 -44 -13 -12 11 -12 15 -2
22 17 11 40 6 46 -9z m113 -60 c12 -15 12 -16 -4 -10 -10 4 -23 7 -28 7 -5 0
-9 5 -9 10 0 16 26 12 41 -7z m1206 -15 c-3 -7 -5 -2 -5 12 0 14 2 19 5 13 2
-7 2 -19 0 -25z m-4387 2 c0 -5 -7 -10 -16 -10 -8 0 -12 5 -9 10 3 6 10 10 16
10 5 0 9 -4 9 -10z m3435 -130 c3 -6 -1 -7 -9 -4 -18 7 -21 14 -7 14 6 0 13
-4 16 -10z m735 -30 c0 -5 -4 -10 -10 -10 -5 0 -10 5 -10 10 0 6 5 10 10 10 6
0 10 -4 10 -10z m-675 -10 c3 -6 -1 -7 -9 -4 -18 7 -21 14 -7 14 6 0 13 -4 16
-10z m842 -28 c-12 -11 -20 -13 -25 -6 -4 6 -14 14 -22 17 -9 3 -4 6 13 6 15
1 27 6 27 13 0 9 3 9 12 0 10 -9 8 -16 -5 -30z m-4927 9 c0 -5 -12 -16 -26
-26 l-27 -17 19 26 c19 26 34 33 34 17z m4312 -121 c24 -11 35 -20 24 -20 -23
0 -106 40 -106 52 0 4 -4 8 -10 8 -13 0 -100 62 -100 72 0 4 34 -15 75 -43 41
-27 94 -59 117 -69z m-5532 80 c0 -5 -2 -10 -4 -10 -3 0 -8 5 -11 10 -3 6 -1
10 4 10 6 0 11 -4 11 -10z m280 -3 c0 -2 -10 -12 -21 -23 -22 -19 -22 -19 -10
4 10 18 31 31 31 19z m-455 -74 c-8 -44 -25 -68 -25 -36 0 12 5 25 10 28 6 3
10 15 10 26 0 10 3 19 6 19 3 0 3 -17 -1 -37z m5995 -8 c-7 -8 -20 -15 -28
-15 -13 0 -12 3 4 15 25 19 40 19 24 0z m-6315 -46 c4 -27 4 -53 1 -56 -3 -4
-6 6 -6 20 0 15 -4 27 -9 27 -5 0 -9 14 -9 30 2 47 15 35 23 -21z m6110 21 c3
-5 -3 -10 -14 -10 -12 0 -21 5 -21 10 0 6 6 10 14 10 8 0 18 -4 21 -10z
m-5815 -44 c0 -24 -22 -76 -30 -71 -9 6 11 85 22 85 4 0 8 -6 8 -14z m357 -32
c-3 -25 -17 -45 -17 -26 0 7 -5 12 -11 12 -6 0 -8 -7 -5 -17 4 -10 4 -14 0
-10 -5 4 -9 25 -10 47 -2 37 -1 38 22 28 17 -8 23 -18 21 -34z m-1230 9 c1
-16 5 -50 7 -78 l5 -50 -10 45 c-6 25 -14 52 -18 60 -8 17 -3 50 7 50 4 0 8
-12 9 -27z m6890 21 c-3 -3 -12 -4 -19 -1 -8 3 -5 6 6 6 11 1 17 -2 13 -5z
m-37 -14 c0 -5 -7 -7 -15 -4 -8 4 -15 8 -15 10 0 2 7 4 15 4 8 0 15 -4 15 -10z
m-4714 -35 c-37 -32 -46 -32 -16 0 13 14 28 25 34 25 6 0 -2 -11 -18 -25z
m-1305 -72 c-10 -17 -10 -16 -11 3 0 23 13 41 18 25 2 -6 -1 -18 -7 -28z m329
7 c0 -5 -5 -10 -11 -10 -5 0 -7 5 -4 10 3 6 8 10 11 10 2 0 4 -4 4 -10z
m-1130 -58 c0 -11 9 -29 20 -42 11 -13 20 -27 20 -32 0 -6 10 -19 23 -29 22
-20 22 -20 0 -10 -23 12 -52 49 -71 94 -15 34 -15 37 -2 37 6 0 10 -8 10 -18z
m517 -34 c-3 -7 -5 -2 -5 12 0 14 2 19 5 13 2 -7 2 -19 0 -25z m1453 23 c0 -5
-7 -12 -16 -15 -14 -5 -15 -4 -4 9 14 17 20 19 20 6z m-2173 -53 c-3 -7 -5 -2
-5 12 0 14 2 19 5 13 2 -7 2 -19 0 -25z m970 10 c-3 -8 -6 -5 -6 6 -1 11 2 17
5 13 3 -3 4 -12 1 -19z m5380 10 c15 -7 38 -23 51 -35 13 -13 27 -23 32 -23 6
0 10 -5 10 -10 0 -14 -29 2 -87 46 -48 37 -49 41 -6 22z m-5090 -30 c-3 -8 -6
-5 -6 6 -1 11 2 17 5 13 3 -3 4 -12 1 -19z m-17 -34 c0 -8 -5 -12 -10 -9 -6 4
-8 11 -5 16 9 14 15 11 15 -7z m6954 -73 c-4 -9 -6 -23 -5 -33 1 -9 -3 -19 -9
-23 -5 -3 -10 -18 -10 -33 0 -24 -27 -106 -66 -202 l-14 -35 6 45 c3 25 10 50
14 55 4 6 11 26 15 45 8 39 24 95 36 125 5 11 13 47 19 79 5 33 11 62 12 65 1
3 3 -11 5 -33 3 -21 1 -46 -3 -55z m-7850 14 c11 -8 16 -15 10 -15 -5 0 -18 7
-28 15 -11 8 -16 15 -10 15 5 0 18 -7 28 -15z m356 -43 c-7 -13 -9 -8 -9 23 0
35 1 37 10 17 6 -15 5 -30 -1 -40z m7102 -5 c-9 -28 -20 -53 -24 -55 -5 -2 -8
-12 -8 -22 0 -10 -4 -22 -10 -25 -17 -10 -12 16 17 92 31 82 50 90 25 10z
m-7677 -305 c4 -23 4 -50 -1 -60 -14 -31 -40 280 -28 334 7 32 10 15 16 -96 4
-74 10 -154 13 -178z m1042 236 c-3 -8 -6 -5 -6 6 -1 11 2 17 5 13 3 -3 4 -12
1 -19z m-472 -27 c-9 -16 -25 -3 -18 15 4 10 9 12 15 6 6 -6 7 -15 3 -21z
m7045 -58 c-11 -17 -11 -17 -6 0 3 10 6 24 7 30 0 9 2 9 5 0 3 -7 0 -20 -6
-30z m-7053 -10 c-3 -10 -5 -4 -5 12 0 17 2 24 5 18 2 -7 2 -21 0 -30z m1165
-67 c-9 -19 -19 -30 -20 -25 -4 10 24 59 33 59 3 0 -3 -15 -13 -34z m6225
-108 c-3 -8 -6 -5 -6 6 -1 11 2 17 5 13 3 -3 4 -12 1 -19z m-397 -75 c-11 -17
-11 -17 -6 0 3 10 6 24 7 30 0 9 2 9 5 0 3 -7 0 -20 -6 -30z m-1135 7 c52 -6
56 -7 32 -14 -36 -11 -91 -2 -119 19 l-23 17 25 -8 c14 -4 52 -10 85 -14z
m-6408 -72 c-2 -13 -4 -5 -4 17 -1 22 1 32 4 23 2 -10 2 -28 0 -40z m-110 -95
c-3 -10 -5 -4 -5 12 0 17 2 24 5 18 2 -7 2 -21 0 -30z m130 -15 c-3 -8 -6 -5
-6 6 -1 11 2 17 5 13 3 -3 4 -12 1 -19z m30 -126 c11 -56 21 -94 42 -160 7
-25 7 -32 -2 -29 -7 2 -13 16 -15 30 -2 15 -8 25 -13 22 -5 -4 -9 3 -9 15 0
12 -4 18 -10 15 -5 -3 -10 -2 -10 4 0 5 4 11 9 13 8 3 4 45 -14 128 -5 20 -4
32 1 27 5 -5 14 -34 21 -65z m7623 58 c0 -5 -5 -10 -11 -10 -5 0 -7 5 -4 10 3
6 8 10 11 10 2 0 4 -4 4 -10z m-322 -30 c-14 -22 -24 -19 -15 5 4 8 11 15 17
15 6 0 6 -7 -2 -20z m255 -185 c-3 -9 -8 -14 -10 -11 -3 3 -2 9 2 15 9 16 15
13 8 -4z m-6133 -295 c0 -20 -2 -22 -10 -10 -5 8 -10 26 -10 40 0 20 2 22 10
10 5 -8 10 -26 10 -40z m5824 -6 c10 -26 7 -72 -5 -80 -8 -4 -9 0 -4 15 7 23
-4 28 -24 9 -11 -11 -13 -10 -8 3 3 9 0 22 -6 28 -9 10 -7 16 7 27 25 18 32
18 40 -2z m-64 -24 c0 -5 -7 -10 -15 -10 -8 0 -15 5 -15 10 0 6 7 10 15 10 8
0 15 -4 15 -10z m-5753 -47 c-3 -10 -5 -4 -5 12 0 17 2 24 5 18 2 -7 2 -21 0
-30z m5783 -20 c0 -22 -24 -58 -67 -104 -18 -19 -33 -28 -33 -21 0 15 39 75
52 80 4 2 8 10 8 18 0 8 5 14 10 14 6 0 10 7 10 15 0 8 5 15 10 15 6 0 10 -8
10 -17z m-5755 -73 c6 -53 0 -44 -14 19 -5 24 -6 39 -1 35 5 -5 11 -29 15 -54z
m7161 4 c-4 -14 -9 -24 -12 -21 -3 2 -2 17 2 31 3 15 9 25 11 22 3 -3 2 -17
-1 -32z m-7136 -76 c0 -18 -2 -20 -9 -8 -6 8 -7 18 -5 22 9 14 14 9 14 -14z
m5605 -123 c-21 -25 -40 -43 -43 -40 -8 8 42 75 57 75 8 0 11 6 6 18 -5 13 -3
14 6 5 9 -9 3 -22 -26 -58z m965 19 c0 -8 -4 -12 -10 -9 -5 3 -10 10 -10 16 0
5 5 9 10 9 6 0 10 -7 10 -16z m-1228 -145 c-23 -22 -42 -36 -42 -30 0 15 69
85 77 77 4 -4 -12 -25 -35 -47z m38 -9 c0 -5 -4 -10 -10 -10 -5 0 -10 5 -10
10 0 6 5 10 10 10 6 0 10 -4 10 -10z m-110 -10 c0 -5 -4 -10 -10 -10 -5 0 -10
5 -10 10 0 6 5 10 10 10 6 0 10 -4 10 -10z m-6973 -42 c-3 -7 -5 -2 -5 12 0
14 2 19 5 13 2 -7 2 -19 0 -25z m8234 -21 c-10 -9 -11 -8 -5 6 3 10 9 15 12
12 3 -3 0 -11 -7 -18z m-8224 -34 c-3 -10 -5 -4 -5 12 0 17 2 24 5 18 2 -7 2
-21 0 -30z m6943 23 c0 -2 -8 -10 -17 -17 -16 -13 -17 -12 -4 4 13 16 21 21
21 13z m1028 -76 c-7 -11 -16 -20 -20 -20 -5 0 -9 -10 -9 -22 -1 -18 -2 -19
-6 -5 -3 10 3 29 11 42 20 30 42 34 24 5z m12 -47 c0 -12 -33 -43 -46 -43 -7
0 -36 -28 -64 -62 -57 -68 -70 -78 -70 -54 0 9 7 19 15 22 8 4 13 10 10 14 -3
4 4 10 15 13 11 3 20 11 20 19 0 10 -3 9 -10 -2 -5 -8 -10 -10 -10 -5 0 16 34
42 49 37 9 -3 11 2 7 19 -3 13 -3 18 0 12 8 -18 27 -16 21 1 -4 10 0 12 14 9
11 -3 21 1 25 11 6 16 24 23 24 9z m-556 -29 c8 -20 -91 -137 -107 -127 -6 3
-7 1 -3 -6 10 -15 -13 -43 -27 -34 -5 3 -7 1 -4 -4 4 -6 -8 -22 -25 -37 -18
-14 -28 -26 -24 -26 4 0 -12 -20 -35 -45 -23 -25 -46 -45 -52 -45 -13 0 -65
-58 -58 -65 3 -4 1 -6 -4 -5 -20 4 -35 0 -35 -11 0 -5 6 -7 13 -3 6 4 3 -2 -7
-14 -11 -12 -27 -22 -37 -22 -13 0 -17 -5 -12 -17 3 -10 3 -15 -1 -11 -5 4
-18 -4 -31 -18 -13 -14 -26 -21 -29 -16 -3 5 47 62 111 126 87 88 118 114 126
104 6 -9 7 -8 3 6 -4 12 3 28 24 49 16 17 30 35 30 40 0 5 7 7 14 4 9 -4 13
-1 10 6 -6 16 42 62 64 62 12 0 16 7 15 23 -3 21 10 31 20 15 2 -5 2 -2 0 6
-4 14 36 81 48 81 4 0 10 -7 13 -16z m-680 -29 c-10 -8 -23 -14 -29 -14 -5 0
-1 6 9 14 11 8 24 15 30 15 5 0 1 -7 -10 -15z m596 -65 c0 -5 -4 -10 -10 -10
-5 0 -10 5 -10 10 0 6 5 10 10 10 6 0 10 -4 10 -10z m-580 -15 c0 -8 -4 -15
-10 -15 -5 0 -10 7 -10 15 0 8 5 15 10 15 6 0 10 -7 10 -15z m-140 -4 c0 -5
-9 -13 -21 -16 -12 -4 -19 -13 -17 -23 3 -14 -30 -39 -62 -46 -11 -3 -95 -60
-114 -77 -11 -11 -24 -19 -29 -19 -5 0 10 16 33 35 23 19 46 35 51 35 4 0 6 7
3 15 -4 11 -2 13 9 9 8 -3 25 5 38 18 21 21 99 78 106 78 2 0 3 -4 3 -9z m4
-27 c25 -10 19 -22 -9 -16 -14 2 -22 8 -19 13 6 11 8 11 28 3z m1151 -34 c-10
-11 -20 -18 -23 -15 -3 3 3 14 13 25 10 11 20 18 23 15 3 -3 -3 -14 -13 -25z
m-143 -177 c-35 -48 -191 -207 -197 -201 -8 7 24 47 83 104 47 46 53 60 20 44
-14 -6 -6 4 17 25 62 56 109 73 77 28z m-1372 13 c0 -3 -4 -8 -10 -11 -5 -3
-10 -1 -10 4 0 6 5 11 10 11 6 0 10 -2 10 -4z m-60 -70 c0 -2 -8 -10 -17 -17
-16 -13 -17 -12 -4 4 13 16 21 21 21 13z m740 -101 c0 -6 -63 -64 -104 -96
-43 -34 -29 -14 32 45 52 51 72 65 72 51z m-175 -150 c-22 -19 -44 -35 -50
-35 -5 0 3 10 19 22 15 12 33 27 40 34 6 7 16 13 21 13 6 1 -8 -15 -30 -34z
m-105 -78 c0 -2 -10 -12 -22 -23 l-23 -19 19 23 c18 21 26 27 26 19z m-60 -51
c0 -2 -7 -7 -16 -10 -8 -3 -12 -2 -9 4 6 10 25 14 25 6z m-82 -59 c-76 -75
-551 -325 -773 -406 -90 -33 -54 -11 70 44 166 73 451 216 529 266 38 24 73
43 78 42 4 -2 8 2 8 7 0 6 6 10 13 10 6 0 28 14 47 30 41 35 61 40 28 7z
m1474 -29 c-7 -30 -42 -76 -42 -56 0 20 29 78 40 78 4 0 6 -10 2 -22z m-104
-203 c-6 -14 -13 -23 -15 -21 -5 5 15 46 22 46 3 0 -1 -11 -7 -25z m-1029
-1008 c-17 -14 -100 -57 -108 -57 -6 0 -11 5 -11 11 0 6 6 9 14 6 8 -3 16 -3
18 1 8 20 74 60 82 52 5 -5 8 -11 5 -13z m31 -7 c0 -5 -4 -10 -10 -10 -5 0
-10 5 -10 10 0 6 5 10 10 10 6 0 10 -4 10 -10z m-506 -344 c-11 -8 -33 -18
-47 -21 -15 -4 -30 -11 -33 -16 -7 -12 -24 -11 -24 1 0 6 6 10 13 10 6 1 30 9
52 20 47 23 68 26 39 6z m-172 -76 c-35 -17 -75 -32 -90 -36 -23 -4 60 40 108
59 48 18 35 2 -18 -23z m-177 -69 c-33 -16 -62 -27 -64 -25 -8 7 12 24 29 24
10 0 22 5 25 10 4 6 10 8 15 5 5 -3 11 -1 15 5 3 5 14 10 23 10 9 0 -10 -13
-43 -29z m-95 -34 c-14 -8 -32 -11 -40 -8 -11 4 -8 7 10 12 42 12 56 9 30 -4z
m-85 -32 c-51 -19 -67 -18 -35 0 14 8 36 14 50 14 20 0 17 -3 -15 -14z m-68
-21 c-3 -3 -12 -4 -19 -1 -8 3 -5 6 6 6 11 1 17 -2 13 -5z m-58 -18 c-2 -2
-22 -9 -43 -15 -22 -5 -35 -6 -30 -2 9 9 37 18 63 20 8 0 12 -1 10 -3z m-99
-26 c0 -5 -4 -10 -10 -10 -5 0 -10 5 -10 10 0 6 5 10 10 10 6 0 10 -4 10 -10z
m-2487 -20 c48 -9 55 -16 23 -22 -14 -3 -23 -1 -20 3 4 8 -35 14 -59 10 -5 -1
-6 3 -2 9 4 6 -6 8 -27 5 -29 -4 -30 -4 -8 4 14 5 32 7 40 4 8 -3 32 -9 53
-13z m2450 3 c-7 -2 -21 -2 -30 0 -10 3 -4 5 12 5 17 0 24 -2 18 -5z m-108
-23 c-3 -5 -14 -10 -23 -9 -14 0 -13 2 3 9 27 11 27 11 20 0z m-2230 -10 c4
-6 -6 -10 -22 -9 -25 0 -26 1 -8 9 11 5 21 9 22 9 1 1 5 -3 8 -9z m68 -17 c-7
-2 -21 -2 -30 0 -10 3 -4 5 12 5 17 0 24 -2 18 -5z m2015 -10 c-10 -2 -26 -2
-35 0 -10 3 -2 5 17 5 19 0 27 -2 18 -5z m-1851 -19 c-3 -3 -12 -4 -19 -1 -8
3 -5 6 6 6 11 1 17 -2 13 -5z m1676 -11 c-7 -2 -19 -2 -25 0 -7 3 -2 5 12 5
14 0 19 -2 13 -5z m44 1 c-3 -3 -12 -4 -19 -1 -8 3 -5 6 6 6 11 1 17 -2 13 -5z"/>
<path d="M9768 9672 c8 -5 29 -8 48 -6 19 1 34 -2 34 -7 0 -5 15 -9 33 -9 18
0 37 -4 43 -9 14 -14 104 -24 104 -12 0 16 -34 30 -86 36 -122 13 -188 16
-176 7z"/>
<path d="M9610 9628 c36 -17 66 -34 68 -39 2 -4 10 -5 18 -2 8 3 14 1 14 -5 0
-6 12 -13 28 -17 64 -14 82 -61 19 -49 -18 3 -45 7 -61 9 -15 2 -31 7 -35 11
-3 4 2 4 12 1 9 -4 17 -2 17 2 0 5 10 7 23 4 22 -5 22 -5 2 10 -11 8 -23 13
-27 11 -5 -3 -8 0 -8 5 0 6 -11 11 -24 11 -14 0 -31 7 -40 15 -8 8 -35 18 -60
21 -25 4 -46 11 -46 15 0 16 -53 9 -65 -8 -10 -13 -27 -16 -79 -15 -42 1 -65
-2 -61 -8 4 -6 -8 -10 -27 -9 -27 0 -30 2 -13 9 17 7 14 9 -13 9 -20 1 -31 -3
-27 -9 8 -12 3 -13 -29 0 -14 5 -26 6 -26 2 0 -4 -93 -7 -207 -7 -204 0 -250
-5 -238 -25 4 -6 81 -10 198 -11 106 0 217 -5 247 -10 30 -5 107 -14 170 -20
63 -6 119 -15 125 -20 5 -5 21 -9 35 -9 24 0 82 -11 278 -55 35 -8 89 -23 120
-34 32 -10 91 -29 132 -41 41 -12 89 -28 107 -36 17 -8 37 -14 45 -14 8 0 18
-3 21 -6 6 -7 63 -28 152 -58 134 -45 527 -250 669 -349 18 -13 44 -20 65 -20
30 1 32 0 12 -6 -25 -7 -24 -7 14 -31 21 -14 47 -30 57 -36 10 -6 29 -20 41
-31 45 -40 76 -54 96 -44 10 6 21 7 25 4 3 -4 28 -6 54 -6 41 1 43 0 17 -7
-20 -6 3 -8 72 -7 56 1 99 5 97 9 -3 5 -12 8 -20 8 -8 0 -14 5 -14 11 0 7 12
9 31 7 27 -4 30 -3 23 16 -3 12 -7 33 -7 48 0 19 -6 30 -21 34 -12 4 -23 9
-26 13 -3 3 -19 14 -37 24 -24 13 -55 17 -144 17 -62 0 -110 2 -107 5 2 3 75
5 161 6 87 0 157 2 157 4 0 2 -24 16 -52 31 -101 51 -108 55 -113 65 -8 11 77
1 130 -16 76 -25 190 -55 227 -59 20 -3 79 -17 130 -32 51 -14 109 -27 130
-27 20 -1 34 -5 32 -9 -6 -10 42 -22 60 -15 18 7 92 -19 89 -31 -1 -6 7 -7 19
-4 12 3 19 1 15 -4 -3 -6 2 -10 11 -11 9 -1 31 -7 47 -14 17 -7 34 -11 39 -10
5 1 6 -5 3 -13 -4 -10 -1 -13 9 -9 13 5 11 10 -7 29 -12 13 -26 24 -30 24 -4
0 -36 19 -71 43 -35 23 -85 53 -113 67 -27 14 -52 28 -55 31 -3 3 -15 9 -27
13 -13 4 -23 11 -23 16 0 4 -12 11 -26 14 -14 4 -43 18 -65 32 -21 13 -39 21
-39 18 0 -4 -9 1 -19 10 -11 10 -18 23 -15 30 6 16 -40 41 -57 31 -7 -5 -10
-4 -6 2 3 5 -12 20 -33 32 -22 12 -40 19 -40 15 0 -4 -8 0 -17 8 -27 23 -47
33 -39 20 10 -17 -10 -15 -47 5 -17 9 -43 19 -57 24 -16 5 -19 8 -7 8 9 1 17
5 17 10 0 6 -8 9 -18 8 -18 -1 -79 25 -172 73 -59 31 -121 55 -185 72 -22 6
-42 14 -45 17 -7 8 -67 31 -109 41 -18 5 -30 5 -25 0 5 -5 18 -10 29 -12 10
-1 27 -11 37 -20 9 -9 33 -20 52 -24 20 -3 36 -11 36 -16 0 -6 7 -8 15 -4 10
3 15 -1 15 -11 0 -9 3 -13 6 -10 4 4 21 -4 38 -16 37 -26 91 -56 247 -137 69
-36 116 -66 116 -75 0 -10 -4 -12 -12 -5 -22 18 -85 40 -85 30 0 -6 8 -14 18
-17 17 -7 48 -33 38 -33 -18 0 -110 43 -128 60 -12 11 -28 20 -35 20 -7 0 -13
4 -13 9 0 5 -8 12 -17 15 -10 3 -30 16 -44 30 -14 13 -44 34 -66 47 -23 13
-73 43 -112 67 -38 23 -77 42 -85 42 -9 0 -16 4 -16 10 0 5 -3 9 -7 8 -5 -1
-38 12 -75 29 -37 18 -86 37 -110 44 -24 7 -49 17 -56 23 -18 13 -145 18 -136
5 3 -6 -4 -8 -18 -4 -13 3 -32 -2 -43 -11 -20 -15 -20 -15 -1 -30 27 -19 34
-18 39 9 4 19 4 18 6 -6 0 -15 8 -30 16 -32 8 -3 23 -8 33 -12 9 -3 22 -7 27
-9 19 -5 319 -113 390 -139 38 -15 73 -32 77 -38 4 -7 8 -9 8 -5 0 4 16 -1 36
-12 19 -11 39 -18 45 -15 5 4 6 -2 2 -11 -4 -11 -3 -15 5 -10 6 3 13 2 17 -4
9 -15 -17 -12 -39 5 -11 8 -26 15 -33 15 -13 0 -45 13 -140 56 -17 8 -35 14
-41 14 -5 0 -23 7 -38 15 -16 8 -36 15 -44 15 -9 0 -20 4 -25 8 -6 5 -44 18
-85 31 -41 12 -82 26 -91 31 -9 5 -26 6 -38 3 -11 -3 -21 -1 -21 4 0 8 -76 10
-105 2 -5 -1 -23 3 -38 9 -16 7 -37 12 -49 12 -20 0 -159 30 -167 37 -2 1 2
10 10 19 13 16 12 16 -8 6 -28 -16 -33 -15 -33 3 0 8 -6 15 -13 15 -8 0 -22 9
-31 19 -12 14 -38 21 -89 26 -51 6 -66 10 -52 16 19 7 19 8 -3 8 -13 1 -32 6
-42 11 -14 7 -31 6 -59 -4 -36 -12 -42 -12 -54 3 -8 9 -12 22 -10 29 3 7 -3
12 -14 12 -17 1 -129 16 -183 25 -30 6 -201 25 -215 24 -5 0 19 -14 55 -31z
m20 -78 c0 -13 -11 -13 -30 0 -12 8 -11 10 8 10 12 0 22 -4 22 -10z m507 -36
c-3 -3 -12 -4 -19 -1 -8 3 -5 6 6 6 11 1 17 -2 13 -5z m1557 -340 c3 -8 2 -12
-4 -9 -6 3 -10 10 -10 16 0 14 7 11 14 -7z m-354 2 c0 -3 -4 -8 -10 -11 -5 -3
-10 -1 -10 4 0 6 5 11 10 11 6 0 10 -2 10 -4z m357 -176 c24 -13 42 -25 40
-26 -6 -7 -82 16 -85 25 -2 6 -12 11 -23 11 -10 0 -42 18 -71 40 -29 22 -56
40 -60 40 -5 0 -8 5 -8 11 0 9 77 -28 207 -101z m-492 -100 c3 -6 -1 -7 -9 -4
-18 7 -21 14 -7 14 6 0 13 -4 16 -10z m275 -10 c0 -5 -10 -10 -22 -9 -22 0
-22 1 -3 9 11 5 21 9 23 9 1 1 2 -3 2 -9z m623 -17 c-7 -2 -19 -2 -25 0 -7 3
-2 5 12 5 14 0 19 -2 13 -5z m-561 -48 c-3 -12 -43 -7 -57 7 -7 6 2 8 25 6 19
-2 34 -7 32 -13z m-22 -75 c0 -5 -5 -10 -11 -10 -5 0 -7 5 -4 10 3 6 8 10 11
10 2 0 4 -4 4 -10z"/>
<path d="M10060 9621 c0 -12 39 -21 45 -11 3 4 -2 11 -11 14 -22 8 -34 7 -34
-3z"/>
<path d="M10255 9590 c-3 -5 1 -10 10 -10 9 0 13 5 10 10 -3 6 -8 10 -10 10
-2 0 -7 -4 -10 -10z"/>
<path d="M10290 9586 c0 -8 -6 -17 -12 -19 -7 -3 3 -3 22 0 24 3 31 2 21 -5
-9 -7 0 -11 33 -16 25 -4 53 -14 61 -22 8 -9 20 -12 25 -9 6 4 16 2 23 -3 7
-6 35 -13 62 -16 28 -3 44 -3 37 0 -6 3 -10 10 -6 15 3 5 -2 9 -11 9 -9 0 -23
6 -31 14 -7 8 -19 16 -26 19 -22 7 -3 17 36 19 23 1 32 4 24 9 -22 14 -47 10
-68 -11 -19 -19 -20 -19 -63 0 -59 26 -127 35 -127 16z"/>
<path d="M8588 9575 c-3 -3 -25 -10 -49 -14 -35 -7 -23 -9 60 -8 73 2 106 6
109 15 3 9 -13 12 -55 12 -33 0 -62 -2 -65 -5z"/>
<path d="M9277 9429 c7 -7 15 -10 18 -7 3 3 -2 9 -12 12 -14 6 -15 5 -6 -5z"/>
<path d="M8458 9423 c12 -2 30 -2 40 0 9 3 -1 5 -23 4 -22 0 -30 -2 -17 -4z"/>
<path d="M8777 9423 c-10 -9 -9 -23 2 -23 5 0 11 7 15 15 5 15 -5 20 -17 8z"/>
<path d="M8845 9416 l-20 -15 20 -2 c37 -2 106 -14 190 -33 33 -7 90 -16 127
-20 58 -7 69 -5 86 12 10 10 27 22 38 27 14 6 -1 10 -53 16 -39 4 -76 10 -82
13 -6 4 -11 2 -11 -3 0 -6 8 -11 18 -11 13 0 14 -2 3 -9 -7 -5 -29 -5 -49 0
-20 4 -40 5 -44 2 -5 -2 -26 3 -46 13 -51 25 -151 30 -177 10z m380 -36 c4 -6
-7 -10 -27 -9 -27 0 -30 2 -13 9 27 12 33 12 40 0z"/>
<path d="M8738 9413 c7 -3 16 -2 19 1 4 3 -2 6 -13 5 -11 0 -14 -3 -6 -6z"/>
<path d="M9520 9416 c0 -2 9 -6 20 -9 11 -3 18 -1 14 4 -5 9 -34 13 -34 5z"/>
<path d="M9330 9380 c0 -12 26 -19 39 -10 9 5 4 9 -13 12 -14 3 -26 2 -26 -2z"/>
<path d="M9696 9369 c3 -6 0 -15 -7 -20 -9 -6 -4 -7 15 -3 20 5 27 4 22 -4 -4
-7 4 -14 21 -18 52 -12 138 -37 153 -45 8 -4 47 -17 85 -29 67 -21 103 -40 77
-40 -6 0 -59 16 -116 35 -58 19 -119 35 -136 35 -18 0 -29 4 -25 10 6 9 -6 11
-83 15 -13 0 -26 5 -30 11 -9 12 -62 15 -62 3 0 -5 14 -9 30 -9 17 0 30 -4 30
-9 0 -7 25 -14 87 -23 7 -1 10 -5 8 -9 -10 -16 8 -39 31 -39 13 0 24 -5 24
-11 0 -5 -4 -7 -10 -4 -5 3 -10 1 -10 -5 0 -6 -5 -8 -11 -5 -5 4 -25 9 -42 12
-18 3 -37 9 -44 15 -7 5 -20 8 -30 6 -28 -7 53 -38 104 -40 24 -2 43 -5 43 -9
0 -3 19 -12 43 -20 48 -16 116 -49 102 -49 -16 -1 69 -30 88 -30 9 0 17 -5 17
-11 0 -5 5 -7 10 -4 6 3 10 0 10 -7 1 -13 55 -42 103 -53 15 -4 27 -13 27 -19
0 -7 55 -45 123 -86 67 -40 154 -97 193 -126 40 -30 79 -54 88 -54 15 0 68 22
174 73 12 6 19 14 15 18 -22 20 -92 49 -119 49 -30 0 -60 20 -48 33 3 3 -5 3
-18 1 -22 -5 -22 -5 -4 10 24 19 12 35 -14 18 -15 -9 -25 -8 -47 3 -15 8 -34
15 -40 15 -7 0 -13 5 -13 10 0 14 13 13 46 -5 34 -17 54 -19 54 -5 0 6 -14 13
-30 17 -17 3 -28 8 -25 11 3 3 -9 12 -27 20 -21 9 -28 16 -19 19 7 3 16 2 20
-3 3 -5 24 -18 46 -29 22 -11 51 -27 65 -36 14 -10 36 -20 49 -24 20 -6 23 -4
17 10 -5 14 -3 15 6 7 9 -7 22 -6 43 3 27 12 27 13 8 14 -13 1 -23 5 -23 11 0
5 -12 13 -27 16 -16 4 -38 13 -49 21 -12 8 -32 11 -46 8 -15 -4 -30 0 -43 12
-11 10 -34 25 -52 32 -40 16 -65 42 -33 34 11 -3 23 -9 26 -14 3 -5 13 -9 22
-9 14 0 13 3 -5 21 -11 12 -31 21 -44 21 -27 1 -91 -22 -101 -36 -3 -6 -46 9
-98 32 -50 23 -97 42 -104 42 -8 0 -16 7 -20 15 -4 12 0 14 22 9 15 -4 37 -13
49 -20 12 -8 31 -14 43 -14 11 0 20 -4 20 -10 0 -11 69 -32 82 -24 30 18 -46
58 -125 66 -43 5 -79 18 -48 18 8 0 11 7 7 15 -3 8 -1 15 4 15 6 0 10 5 10 11
0 8 -6 7 -17 -2 -13 -11 -17 -11 -20 -1 -3 6 -11 12 -19 12 -8 0 -14 4 -14 9
0 5 -16 12 -35 15 -19 4 -35 11 -35 16 0 6 -8 10 -19 10 -10 0 -35 7 -55 15
-19 8 -39 14 -43 13 -5 0 -21 4 -38 11 -98 42 -257 68 -239 40z m446 -151 c-7
-7 -12 -8 -12 -2 0 14 12 26 19 19 2 -3 -1 -11 -7 -17z m-36 -13 c17 -16 14
-18 -10 -9 -9 3 -16 10 -16 15 0 13 9 11 26 -6z m14 -106 c0 -5 -11 -9 -25 -9
-14 0 -25 4 -25 9 0 5 11 9 25 9 14 0 25 -4 25 -9z m550 -121 c0 -6 -6 -5 -15
2 -8 7 -15 14 -15 16 0 2 7 1 15 -2 8 -4 15 -11 15 -16z"/>
<path d="M9402 9358 c3 -7 13 -15 24 -17 10 -2 23 -8 27 -15 6 -8 10 -8 14 2
2 6 9 12 14 12 6 0 7 -4 4 -10 -7 -12 12 -12 40 0 16 6 17 9 5 13 -8 2 -31 9
-51 16 -47 15 -82 14 -77 -1z"/>
<path d="M9555 9271 c-16 -7 -14 -9 14 -14 47 -10 61 -9 61 4 0 6 -7 9 -15 5
-8 -3 -15 -1 -15 4 0 12 -17 12 -45 1z"/>
<path d="M9688 9263 c7 -3 16 -2 19 1 4 3 -2 6 -13 5 -11 0 -14 -3 -6 -6z"/>
<path d="M9730 9260 c0 -5 5 -10 11 -10 5 0 7 5 4 10 -3 6 -8 10 -11 10 -2 0
-4 -4 -4 -10z"/>
<path d="M11582 9235 c3 -3 16 -8 28 -10 12 -2 20 -1 16 2 -4 4 -16 8 -28 10
-12 2 -19 1 -16 -2z"/>
<path d="M9618 9183 c7 -3 16 -2 19 1 4 3 -2 6 -13 5 -11 0 -14 -3 -6 -6z"/>
<path d="M9650 9170 c0 -5 4 -10 9 -10 13 0 179 -80 261 -126 102 -56 200
-125 200 -140 0 -7 6 -11 14 -8 9 3 17 -3 21 -15 3 -12 11 -19 16 -16 5 4 9 1
9 -5 0 -6 4 -9 9 -5 6 3 33 -18 62 -47 28 -29 48 -46 44 -38 -4 8 11 -4 33
-26 60 -62 96 -84 129 -81 41 5 125 47 120 61 -5 14 -238 175 -254 176 -7 0
-13 4 -13 8 0 4 -15 15 -32 24 -18 8 -76 37 -129 64 -150 76 -223 107 -386
163 -99 34 -113 36 -113 21z"/>
<path d="M10400 9129 c0 -5 5 -7 10 -4 6 3 10 8 10 11 0 2 -4 4 -10 4 -5 0
-10 -5 -10 -11z"/>
<path d="M10570 9060 c8 -5 20 -10 25 -10 6 0 3 5 -5 10 -8 5 -19 10 -25 10
-5 0 -3 -5 5 -10z"/>
<path d="M10772 8913 c10 -12 7 -13 -15 -8 -15 4 -27 5 -27 2 0 -11 62 -36 76
-30 7 3 14 -1 14 -8 0 -7 3 -9 6 -6 4 3 16 0 28 -8 11 -8 30 -14 41 -14 19 1
19 2 1 6 -22 6 -50 31 -52 47 0 6 -2 16 -2 23 -1 7 -18 12 -42 11 -34 0 -39
-3 -28 -15z"/>
<path d="M6824 8828 c-62 -41 -89 -66 -81 -74 9 -9 87 39 121 75 38 40 22 39
-40 -1z"/>
<path d="M10840 8774 c0 -8 5 -12 10 -9 6 3 10 -1 10 -10 0 -13 2 -14 14 -3
10 9 11 17 4 26 -15 17 -38 15 -38 -4z"/>
<path d="M6695 8727 c-31 -30 -29 -31 18 -8 27 14 34 26 20 34 -5 2 -21 -10
-38 -26z"/>
<path d="M11601 8724 c0 -11 3 -14 6 -6 3 7 2 16 -1 19 -3 4 -6 -2 -5 -13z"/>
<path d="M12330 8720 c0 -5 5 -10 11 -10 5 0 7 5 4 10 -3 6 -8 10 -11 10 -2 0
-4 -4 -4 -10z"/>
<path d="M12267 8699 c7 -7 15 -10 18 -7 3 3 -2 9 -12 12 -14 6 -15 5 -6 -5z"/>
<path d="M6645 8680 c-3 -5 -2 -10 4 -10 5 0 13 5 16 10 3 6 2 10 -4 10 -5 0
-13 -4 -16 -10z"/>
<path d="M10778 8673 c7 -3 16 -2 19 1 4 3 -2 6 -13 5 -11 0 -14 -3 -6 -6z"/>
<path d="M11110 8640 c36 -33 51 -40 85 -40 45 0 42 4 -37 46 -27 13 -48 21
-48 17 0 -4 -5 -2 -12 5 -7 7 -17 12 -22 12 -6 0 10 -18 34 -40z"/>
<path d="M12340 8660 c8 -5 23 -10 32 -10 9 0 22 -8 27 -17 6 -10 11 -15 11
-11 0 4 12 -4 26 -17 15 -14 32 -25 38 -25 7 0 21 -7 31 -15 48 -37 218 -145
228 -145 8 0 7 3 -1 9 -8 4 -13 12 -13 16 1 5 -6 10 -15 11 -9 2 -35 20 -58
42 -43 42 -94 72 -121 72 -10 0 -13 5 -9 12 4 7 3 8 -4 4 -13 -8 -73 24 -67
35 6 8 -48 34 -90 43 -22 5 -26 4 -15 -4z"/>
<path d="M10343 8587 c-47 -16 -41 -30 10 -22 60 9 77 15 77 26 0 12 -45 9
-87 -4z"/>
<path d="M11096 8571 c-3 -5 1 -12 10 -15 27 -10 36 -7 20 9 -17 17 -23 18
-30 6z"/>
<path d="M6425 8518 c-22 -23 -29 -34 -15 -23 26 21 60 56 60 62 0 8 -8 1 -45
-39z"/>
<path d="M11800 8170 c0 -5 10 -20 23 -32 22 -24 67 -84 67 -91 0 -2 -13 -4
-30 -4 -16 0 -30 4 -30 9 0 4 -4 8 -10 8 -27 0 -5 -21 33 -30 23 -6 59 -22 79
-36 21 -13 44 -24 51 -24 7 0 18 -5 24 -11 7 -7 13 -7 17 -1 3 5 -1 15 -9 22
-8 7 -15 18 -15 25 0 8 -3 15 -8 17 -4 2 -22 22 -41 46 -19 24 -57 59 -85 78
-53 36 -66 40 -66 24z"/>
<path d="M11640 8136 c0 -2 7 -7 16 -10 8 -3 12 -2 9 4 -6 10 -25 14 -25 6z"/>
<path d="M11691 8104 c0 -11 3 -14 6 -6 3 7 2 16 -1 19 -3 4 -6 -2 -5 -13z"/>
<path d="M11783 8076 c7 -14 15 -22 19 -20 14 9 9 23 -11 33 -17 10 -18 8 -8
-13z"/>
<path d="M12086 7955 c9 -14 21 -25 26 -25 5 0 7 -4 3 -9 -5 -9 33 -37 40 -29
4 4 -74 88 -81 88 -2 0 3 -11 12 -25z"/>
<path d="M5665 7700 c-3 -5 -1 -10 4 -10 6 0 11 5 11 10 0 6 -2 10 -4 10 -3 0
-8 -4 -11 -10z"/>
<path d="M13120 7700 c0 -5 7 -10 15 -10 8 0 15 5 15 10 0 6 -7 10 -15 10 -8
0 -15 -4 -15 -10z"/>
<path d="M5635 7650 c3 -5 2 -10 -2 -10 -8 0 -77 -99 -78 -112 0 -3 -11 -16
-24 -27 -13 -12 -20 -21 -15 -21 5 0 5 -4 -1 -8 -5 -4 -16 -18 -24 -32 -8 -14
-38 -67 -68 -117 -29 -51 -53 -100 -53 -108 0 -8 -4 -15 -9 -15 -9 0 -24 -38
-22 -54 1 -5 -2 -12 -6 -15 -11 -7 -43 -75 -43 -90 0 -6 -4 -11 -9 -11 -5 0
-12 -12 -17 -27 -11 -39 -23 -72 -46 -123 -20 -45 -21 -49 -79 -245 -19 -64
-42 -150 -40 -153 1 -1 -6 -16 -14 -33 -9 -16 -15 -38 -14 -47 1 -9 0 -28 -1
-42 -1 -23 -2 -23 -10 -5 -7 16 -9 13 -9 -17 -1 -20 -5 -39 -10 -42 -5 -3 -12
-34 -16 -68 -4 -35 -11 -67 -15 -73 -7 -10 -19 -72 -25 -132 -3 -30 -10 -94
-21 -178 -5 -37 -4 -39 11 -21 8 11 15 28 15 37 0 10 5 21 11 25 13 7 3 -90
-11 -116 -7 -12 -10 -10 -18 9 l-9 25 -7 -28 c-4 -16 -5 -31 -1 -34 3 -3 5 2
5 12 0 10 5 14 11 10 8 -4 9 -30 5 -78 -7 -79 7 -73 18 9 4 28 11 64 16 80 5
17 14 55 20 85 7 30 24 88 37 127 14 40 23 78 21 85 -3 7 1 18 8 23 7 6 21 42
32 80 11 39 33 102 50 140 27 62 44 105 43 112 0 2 7 20 16 40 22 53 53 181
53 221 0 20 4 31 10 27 6 -4 10 8 10 30 0 19 4 43 9 53 5 9 19 51 31 92 12 41
27 91 32 110 12 39 78 224 110 310 31 79 65 158 94 211 13 26 24 54 24 63 0
10 4 15 9 12 5 -3 11 2 14 12 2 9 8 25 12 35 4 10 3 17 -5 17 -6 0 -8 -4 -5
-10z m-571 -1619 c-4 -22 -10 -41 -15 -41 -5 0 -9 -9 -9 -19 0 -11 -5 -32 -11
-48 -10 -26 -12 -26 -19 -8 -4 11 -3 23 2 26 5 3 14 26 19 50 10 45 29 92 36
85 2 -2 1 -22 -3 -45z"/>
<path d="M8010 7551 c0 -10 30 -24 37 -17 3 2 -5 9 -16 16 -12 6 -21 7 -21 1z"/>
<path d="M8085 7528 c23 -14 72 -21 59 -9 -5 5 -25 11 -44 15 -30 5 -32 4 -15
-6z"/>
<path d="M6825 7290 c3 -5 2 -10 -3 -10 -11 0 -23 -25 -27 -56 -2 -18 1 -20
24 -16 14 3 31 9 38 14 15 12 13 48 -4 66 -14 14 -37 16 -28 2z"/>
<path d="M8208 7283 c7 -3 16 -2 19 1 4 3 -2 6 -13 5 -11 0 -14 -3 -6 -6z"/>
<path d="M6524 7226 c-16 -12 -17 -17 -6 -28 11 -11 13 -10 10 2 -2 8 4 16 12
16 8 1 21 2 28 3 16 1 5 21 -12 21 -7 0 -21 -6 -32 -14z"/>
<path d="M6585 7198 c-30 -16 -31 -18 -15 -28 20 -13 33 -12 25 0 -4 6 -1 17
5 25 15 18 12 18 -15 3z"/>
<path d="M6466 7192 c-3 -6 -1 -14 5 -17 14 -9 20 -2 10 14 -6 8 -11 9 -15 3z"/>
<path d="M7818 7167 c-21 -6 -38 -15 -38 -20 0 -5 8 -6 18 -2 9 4 32 11 50 17
17 5 32 11 32 13 0 7 -19 4 -62 -8z"/>
<path d="M6060 7070 c0 -5 5 -10 10 -10 6 0 10 5 10 10 0 6 -4 10 -10 10 -5 0
-10 -4 -10 -10z"/>
<path d="M6381 7010 c-10 -5 -9 -8 2 -13 7 -3 19 -2 26 3 10 5 9 8 -2 13 -7 3
-19 2 -26 -3z"/>
<path d="M9000 6985 c0 -8 -11 -17 -25 -21 -13 -3 -30 -13 -37 -22 -12 -14 -7
-15 41 -9 30 4 59 11 65 17 5 5 22 10 37 10 32 0 48 18 28 31 -8 5 -35 9 -61
9 -36 0 -48 -4 -48 -15z"/>
<path d="M6367 6979 c7 -7 15 -10 18 -7 3 3 -2 9 -12 12 -14 6 -15 5 -6 -5z"/>
<path d="M6411 6973 c-1 -15 -74 -93 -87 -93 -24 0 -31 -38 -24 -120 4 -47 8
-74 9 -60 2 14 5 19 8 12 2 -6 9 -9 15 -6 5 3 12 -3 15 -15 10 -38 29 -22 60
52 39 89 48 127 31 127 -6 0 -4 6 6 13 13 9 15 18 8 36 -7 20 -11 22 -18 10
-7 -10 -10 -5 -15 21 -4 19 -7 30 -8 23z m-61 -113 c0 -5 -4 -10 -9 -10 -6 0
-13 5 -16 10 -3 6 1 10 9 10 9 0 16 -4 16 -10z m30 -94 c0 -3 -4 -8 -10 -11
-5 -3 -10 -1 -10 4 0 6 5 11 10 11 6 0 10 -2 10 -4z m-13 -58 c-3 -8 -6 -5 -6
6 -1 11 2 17 5 13 3 -3 4 -12 1 -19z"/>
<path d="M6488 6973 c7 -3 16 -2 19 1 4 3 -2 6 -13 5 -11 0 -14 -3 -6 -6z"/>
<path d="M8770 6970 c-12 -8 -11 -10 7 -10 12 0 25 5 28 10 8 13 -15 13 -35 0z"/>
<path d="M8575 6955 c-16 -7 -49 -18 -73 -25 -25 -6 -45 -18 -48 -28 -3 -9
-10 -25 -16 -36 -6 -12 -6 -22 0 -28 14 -14 77 -1 99 20 16 16 15 17 -23 23
-39 5 -34 12 19 24 16 3 27 2 24 -2 -3 -4 15 -9 39 -10 24 -1 44 2 44 7 0 6
-10 10 -22 11 l-23 0 23 10 c13 5 28 6 33 3 5 -3 20 4 34 14 21 17 22 21 9 26
-26 10 -87 6 -119 -9z"/>
<path d="M9148 6953 c6 -2 18 -2 25 0 6 3 1 5 -13 5 -14 0 -19 -2 -12 -5z"/>
<path d="M9353 6953 c9 -2 25 -2 35 0 9 3 1 5 -18 5 -19 0 -27 -2 -17 -5z"/>
<path d="M13387 6944 c-8 -8 3 -34 15 -34 7 0 6 5 -1 13 -6 8 -8 17 -4 20 3 4
4 7 1 7 -2 0 -7 -3 -11 -6z"/>
<path d="M6238 6934 c7 -3 19 -21 27 -40 l14 -34 30 31 c38 37 38 44 6 45 -21
2 -24 -1 -14 -12 16 -20 5 -29 -13 -11 -8 8 -25 17 -38 21 -14 3 -19 3 -12 0z"/>
<path d="M5350 6754 c0 -14 4 -23 9 -19 11 6 10 45 -1 45 -4 0 -8 -12 -8 -26z"/>
<path d="M6154 6771 c4 -5 1 -12 -4 -14 -6 -3 -5 -4 2 -3 15 3 23 26 8 26 -6
0 -9 -4 -6 -9z"/>
<path d="M6225 6757 c-14 -11 -16 -20 -10 -43 6 -26 8 -27 14 -9 7 16 9 14 14
-13 4 -19 13 -32 22 -32 8 0 15 -7 15 -15 0 -8 5 -15 10 -15 6 0 10 9 10 20 0
11 -4 20 -10 20 -5 0 -10 12 -10 28 0 67 -18 85 -55 59z m34 -29 c0 -27 -2
-29 -8 -13 -5 11 -6 26 -4 33 8 21 13 13 12 -20z"/>
<path d="M5337 6713 c-4 -6 -10 -33 -14 -60 -3 -26 -11 -51 -17 -55 -13 -9 -1
-22 13 -14 12 8 35 108 29 127 -3 9 -6 10 -11 2z"/>
<path d="M6023 6655 c0 -22 2 -30 4 -17 2 12 2 30 0 40 -3 9 -5 -1 -4 -23z"/>
<path d="M13800 6611 c0 -41 -5 -73 -11 -77 -7 -4 -9 -23 -5 -50 7 -58 73
-257 92 -281 14 -16 15 -13 10 32 -21 220 -58 429 -77 440 -5 4 -9 -24 -9 -64z"/>
<path d="M8046 6618 c5 -8 2 -9 -9 -5 -34 13 -133 -47 -106 -64 17 -10 92 28
83 43 -5 8 -1 9 10 5 18 -7 50 15 39 27 -11 11 -24 6 -17 -6z"/>
<path d="M13917 6280 c5 -234 8 -275 33 -400 7 -30 17 -100 24 -155 10 -74 15
-95 22 -80 5 11 9 43 9 70 -1 160 -9 293 -21 337 -7 28 -13 71 -13 97 0 69
-28 280 -44 331 -13 41 -14 21 -10 -200z"/>
<path d="M13613 6423 c-1 -10 -4 -65 -7 -123 -3 -58 -11 -130 -17 -161 -6 -31
-9 -64 -7 -75 6 -28 26 76 34 176 4 47 11 96 16 110 6 16 6 26 -1 28 -6 2 -8
16 -4 33 3 16 1 29 -4 29 -5 0 -9 -8 -10 -17z"/>
<path d="M5330 6370 c-8 -5 -12 -12 -9 -15 4 -3 12 1 19 10 14 17 11 19 -10 5z"/>
<path d="M5332 6275 c0 -16 2 -22 5 -12 2 9 2 23 0 30 -3 6 -5 -1 -5 -18z"/>
<path d="M13666 6203 c-3 -3 -6 -17 -6 -31 0 -17 -4 -23 -15 -18 -12 4 -15 -3
-15 -34 0 -22 -4 -48 -9 -58 -13 -26 -31 -86 -32 -108 -1 -15 -3 -14 -9 6 -7
22 -8 21 -9 -13 -1 -23 3 -36 9 -32 18 11 10 -25 -10 -45 -11 -11 -20 -29 -20
-39 0 -11 -4 -22 -9 -26 -12 -7 -11 -64 1 -71 4 -3 15 2 24 10 17 18 44 21 44
7 0 -5 -10 -11 -21 -13 -12 -2 -30 -18 -41 -38 l-20 -35 6 33 c3 20 1 32 -6
32 -7 0 -9 -15 -5 -45 4 -24 3 -46 -1 -49 -5 -3 -14 -28 -22 -56 -8 -28 -18
-53 -22 -56 -4 -3 -8 -16 -8 -29 0 -13 -4 -27 -10 -30 -5 -3 -10 -14 -10 -23
0 -16 -33 -132 -50 -177 -5 -11 -14 -36 -20 -55 -14 -38 -27 -71 -55 -138 -15
-35 -16 -47 -6 -68 12 -28 6 -48 -8 -25 -6 9 -14 5 -30 -17 -29 -42 -27 -54
22 -111 55 -64 77 -93 77 -103 0 -4 9 -8 19 -8 11 0 22 -8 24 -17 4 -16 5 -16
6 1 0 11 7 27 14 35 7 9 19 33 25 53 12 34 11 39 -9 59 -25 25 -10 41 17 19
21 -18 30 -3 11 18 -21 23 -22 39 -2 22 21 -18 31 -7 60 73 14 39 31 80 36 90
6 10 13 41 16 68 3 26 9 47 12 44 4 -2 7 4 7 13 1 18 10 74 20 127 3 17 13 50
21 75 8 25 16 70 18 100 16 272 20 354 19 415 -1 39 -2 114 -2 167 -1 88 -9
118 -26 101z m-36 -583 c0 -5 -4 -10 -9 -10 -5 0 -11 -9 -14 -20 -3 -11 -10
-20 -16 -20 -5 0 -3 13 7 30 17 30 32 39 32 20z m-203 -852 c-3 -7 -5 -2 -5
12 0 14 2 19 5 13 2 -7 2 -19 0 -25z"/>
<path d="M5311 6184 c0 -11 3 -14 6 -6 3 7 2 16 -1 19 -3 4 -6 -2 -5 -13z"/>
<path d="M13790 6065 c-2 -36 -5 -63 -18 -175 -6 -47 -15 -132 -22 -190 -11
-106 -26 -178 -61 -305 -11 -38 -27 -97 -36 -130 -9 -33 -20 -64 -23 -70 -4
-5 -11 -27 -14 -49 -4 -21 -11 -46 -15 -55 -18 -35 -41 -92 -41 -101 0 -5 -5
-21 -12 -37 -7 -15 -13 -32 -14 -38 -7 -44 -18 -75 -25 -75 -5 0 -9 -6 -9 -14
0 -8 -3 -16 -7 -18 -13 -5 -53 -97 -53 -122 0 -21 60 -110 60 -90 1 16 39 -71
40 -89 0 -25 48 -127 58 -127 5 0 18 12 28 26 10 14 31 40 46 57 37 42 95 156
104 201 5 31 2 40 -20 63 -37 37 -32 50 6 14 23 -21 36 -27 44 -20 9 8 11 5 7
-10 -3 -12 -1 -21 5 -21 17 0 68 79 115 177 40 85 42 92 41 178 -2 118 -5 144
-15 151 -5 3 -9 -11 -9 -30 0 -20 -4 -36 -10 -36 -5 0 -10 -13 -10 -30 0 -16
-5 -30 -11 -30 -7 0 -9 10 -5 28 33 133 42 354 18 462 -6 25 -13 75 -17 112
-6 65 -25 105 -25 54 0 -14 -4 -28 -10 -31 -5 -3 -10 -20 -10 -37 0 -18 -4
-45 -9 -62 -6 -17 -18 -69 -27 -116 -10 -47 -21 -89 -25 -95 -4 -5 -10 -36
-14 -67 -4 -32 -11 -58 -16 -58 -5 0 -9 -9 -9 -19 0 -11 -4 -23 -10 -26 -11
-7 -14 28 -3 39 4 4 13 31 19 59 7 29 17 70 24 92 12 42 33 154 51 265 15 97
15 236 0 254 -7 8 -10 20 -7 25 4 5 2 12 -4 16 -5 3 -10 17 -10 31 0 13 -4 24
-8 24 -5 0 -13 17 -19 38 -10 37 -10 37 -13 7z m-45 -902 c-6 -34 -25 -70 -25
-49 0 15 23 86 28 86 2 0 1 -17 -3 -37z m-28 -95 c-3 -7 -5 -2 -5 12 0 14 2
19 5 13 2 -7 2 -19 0 -25z m190 -45 c-3 -10 -5 -4 -5 12 0 17 2 24 5 18 2 -7
2 -21 0 -30z m-210 -8 c-6 -19 -12 -33 -14 -32 -6 7 9 67 17 67 5 0 3 -16 -3
-35z m199 -52 c-10 -10 -19 5 -10 18 6 11 8 11 12 0 2 -7 1 -15 -2 -18z m-19
-45 c-3 -8 -6 -5 -6 6 -1 11 2 17 5 13 3 -3 4 -12 1 -19z m-208 -97 c40 -33
51 -51 31 -51 -5 0 -10 7 -10 15 0 14 -43 32 -67 27 -8 -2 -13 8 -13 23 0 32
5 30 59 -14z m-99 -15 c6 -8 18 -12 26 -9 8 3 14 -1 14 -10 0 -8 9 -26 21 -41
23 -29 10 -36 -17 -9 -13 13 -19 14 -22 5 -2 -6 -8 -12 -13 -12 -4 0 -6 7 -2
16 3 8 -4 29 -16 45 -22 29 -14 42 9 15z m-10 -123 c-11 -17 -11 -17 -6 0 3
10 6 24 7 30 0 9 2 9 5 0 3 -7 0 -20 -6 -30z"/>
<path d="M14027 5870 c-3 -124 -10 -263 -14 -310 -10 -95 -4 -400 7 -400 5 0
11 33 15 73 3 39 10 95 16 122 19 101 11 663 -11 719 -5 12 -10 -72 -13 -204z"/>
<path d="M5163 6052 c-53 -119 -106 -346 -138 -592 -17 -122 -19 -372 -4 -480
5 -41 11 -86 13 -100 7 -66 47 -146 67 -134 5 3 6 24 3 47 -6 39 -4 43 23 53
51 19 59 53 48 199 -7 86 -14 130 -22 133 -7 2 -13 -3 -13 -12 0 -8 -5 -18
-10 -21 -13 -8 -5 425 8 434 4 3 8 22 7 41 -1 19 2 71 6 115 14 139 29 339 26
341 -1 2 -8 -9 -14 -24z"/>
<path d="M14101 5775 c-1 -16 -4 -77 -7 -135 -9 -168 -30 -382 -41 -410 -4 -8
-7 -24 -8 -35 -1 -11 -4 -42 -8 -70 -3 -27 -3 -41 0 -30 3 11 9 25 13 30 11
15 44 131 57 205 9 44 11 373 3 425 -5 35 -8 41 -9 20z"/>
<path d="M4962 5550 c0 -19 2 -27 5 -17 2 9 2 25 0 35 -3 9 -5 1 -5 -18z"/>
<path d="M12880 5340 c0 -5 5 -10 10 -10 6 0 10 5 10 10 0 6 -4 10 -10 10 -5
0 -10 -4 -10 -10z"/>
<path d="M13280 5224 c-14 -16 -24 -37 -22 -46 3 -17 -34 -45 -53 -39 -5 1 -5
-3 2 -10 6 -6 9 -18 6 -26 -4 -11 -8 -12 -13 -3 -9 15 -30 4 -30 -15 0 -14 57
-38 70 -30 4 3 11 17 14 32 4 16 18 52 32 80 33 68 29 97 -6 57z"/>
<path d="M12827 5150 c-3 -11 -1 -20 4 -20 5 0 9 9 9 20 0 11 -2 20 -4 20 -2
0 -6 -9 -9 -20z"/>
<path d="M13185 5020 l8 -25 -24 20 -24 20 19 -22 c15 -18 22 -20 33 -11 8 6
10 14 6 17 -4 4 -12 11 -17 16 -5 6 -5 -1 -1 -15z"/>
<path d="M5136 4825 c-16 -16 -14 -35 3 -35 9 0 23 41 17 48 -2 1 -11 -4 -20
-13z"/>
<path d="M5033 4750 c12 -109 30 -170 48 -170 4 0 12 15 18 33 12 35 7 61 -14
87 -7 8 -23 33 -35 55 l-21 40 4 -45z"/>
<path d="M13909 4748 c-7 -11 -19 -26 -25 -32 -38 -40 -42 -106 -6 -106 14 0
21 16 34 78 8 42 15 78 14 79 -1 1 -9 -7 -17 -19z"/>
<path d="M13940 4695 c-5 -14 -13 -38 -16 -53 -4 -15 -11 -33 -16 -39 -12 -15
-2 -63 12 -63 6 0 10 3 11 8 0 4 6 44 13 90 6 45 10 82 9 82 -2 0 -8 -11 -13
-25z"/>
<path d="M13820 4610 c0 -6 -9 -20 -20 -32 -11 -12 -20 -32 -20 -45 0 -15 -4
-22 -11 -18 -6 4 -13 -2 -16 -13 -3 -13 -10 -19 -20 -15 -13 5 -14 3 -3 -17
10 -20 10 -22 -3 -17 -9 3 -19 -3 -26 -19 -6 -15 -7 -24 -1 -24 6 0 10 -5 10
-11 0 -6 -8 -8 -19 -4 -15 4 -20 -1 -25 -30 -4 -19 -11 -35 -16 -35 -14 0 -12
34 2 48 7 7 9 12 4 12 -4 0 -14 -7 -23 -16 -12 -12 -13 -20 -5 -37 22 -44 25
-103 6 -121 -14 -14 -16 -29 -10 -86 3 -37 9 -76 12 -84 10 -26 31 -1 39 45 4
23 11 36 17 33 6 -4 14 0 19 7 15 24 11 -9 -5 -39 -31 -60 -49 -110 -61 -167
-7 -33 -17 -69 -21 -79 -6 -15 -4 -17 7 -11 11 6 12 5 2 -6 -7 -7 -13 -21 -13
-31 0 -34 84 -20 85 14 0 18 15 18 15 0 0 -12 -9 -31 -20 -42 -11 -11 -20 -23
-21 -27 -3 -20 -39 -80 -59 -98 -19 -17 -17 -10 10 38 29 52 31 60 18 73 -12
12 -17 13 -25 2 -15 -19 -45 -116 -39 -126 3 -5 -6 -30 -19 -57 -14 -27 -22
-51 -19 -54 4 -3 9 0 11 7 3 6 10 12 16 12 7 0 -1 -11 -16 -25 -15 -14 -27
-30 -27 -36 0 -10 -113 -251 -130 -279 -35 -53 -48 -125 -25 -134 9 -3 14 -2
11 2 -5 9 40 82 58 94 6 4 8 8 3 8 -7 0 21 50 34 60 10 7 139 230 142 244 1 6
19 36 39 67 21 32 45 77 55 100 9 24 25 60 34 79 19 39 15 55 -7 26 -8 -11
-14 -16 -14 -12 0 4 9 19 20 33 11 14 20 32 20 39 0 7 8 20 17 30 13 13 17 33
16 83 -1 36 -1 90 -1 119 -1 31 -7 64 -16 77 -9 13 -12 26 -7 29 11 7 12 74 1
81 -5 3 -17 -13 -27 -35 -10 -22 -21 -40 -25 -40 -11 0 -9 12 7 40 8 14 14 33
15 43 0 10 14 47 30 82 17 35 30 67 30 71 0 4 8 26 19 48 39 86 45 120 27 154
-16 31 -36 43 -36 22z m0 -151 c0 -4 -4 -11 -10 -14 -5 -3 -10 0 -10 9 0 8 -3
23 -6 33 -5 16 -4 16 10 -1 9 -11 16 -23 16 -27z"/>
<path d="M13867 4478 c-25 -59 -28 -91 -13 -138 8 -25 14 -37 15 -28 1 9 6 29
13 45 10 25 13 142 3 151 -2 2 -10 -11 -18 -30z"/>
<path d="M13817 4327 c-5 -27 -6 -51 -3 -55 12 -12 17 7 14 54 l-3 49 -8 -48z"/>
<path d="M13913 4320 c-7 -19 -15 -53 -19 -75 -4 -22 -11 -46 -17 -53 -6 -7
-11 -45 -12 -85 -2 -40 -6 -84 -10 -98 -4 -17 -2 -30 6 -35 9 -5 10 -2 6 10
-4 10 -1 19 8 22 9 4 15 19 15 35 0 16 5 29 10 29 12 0 13 75 1 98 -12 22 -2
80 10 61 14 -24 20 -3 17 62 -3 64 -3 64 -15 29z m-16 -202 c-3 -8 -6 -5 -6 6
-1 11 2 17 5 13 3 -3 4 -12 1 -19z"/>
<path d="M5161 4174 c0 -11 3 -14 6 -6 3 7 2 16 -1 19 -3 4 -6 -2 -5 -13z"/>
<path d="M13837 4093 c-17 -35 -28 -95 -22 -120 l9 -28 3 25 c2 14 7 32 10 40
14 36 15 110 0 83z"/>
<path d="M13341 3072 c-1 -36 1 -41 13 -30 8 7 10 18 6 23 -4 6 -10 19 -13 30
-2 11 -5 1 -6 -23z"/>
<path d="M12780 2380 c-9 -6 -10 -10 -3 -10 6 0 15 5 18 10 8 12 4 12 -15 0z"/>
<path d="M12650 2275 c-7 -8 -9 -15 -5 -15 4 0 1 -8 -6 -17 -13 -17 -13 -17 7
0 11 9 21 24 21 32 0 19 -2 19 -17 0z"/>
<path d="M12582 2233 c-10 -4 -10 -8 0 -20 11 -14 10 -15 -12 -9 -21 6 -22 5
-7 -4 22 -14 36 -5 34 20 -1 11 -1 20 -2 19 0 0 -6 -3 -13 -6z"/>
<path d="M12540 2181 c0 -10 -39 -27 -52 -23 -4 1 -5 -4 -2 -12 3 -8 -5 -21
-18 -30 -17 -12 -18 -16 -6 -16 9 0 19 7 22 16 3 8 10 13 15 9 6 -3 21 7 35
22 27 29 32 43 16 43 -5 0 -10 -4 -10 -9z m-10 -25 c0 -2 -8 -10 -17 -17 -16
-13 -17 -12 -4 4 13 16 21 21 21 13z"/>
<path d="M12425 2091 c3 -6 -2 -14 -11 -19 -9 -5 -12 -12 -7 -15 5 -3 17 2 25
13 14 16 15 19 2 24 -8 3 -12 2 -9 -3z"/>
<path d="M12350 2045 c1 -26 15 -33 35 -18 14 11 15 14 4 10 -9 -3 -22 0 -28
6 -6 6 -11 7 -11 2z"/>
<path d="M12336 2017 c3 -10 9 -15 12 -12 3 3 0 11 -7 18 -10 9 -11 8 -5 -6z"/>
<path d="M12303 2005 c-6 -7 -9 -16 -5 -20 4 -4 -4 -4 -18 -1 -19 6 -21 5 -10
-3 14 -10 12 -12 -15 -15 -23 -3 -75 -41 -71 -52 2 -6 -1 -17 -7 -23 -8 -8 -8
-11 0 -11 15 0 34 25 25 35 -4 5 -2 6 3 3 6 -4 26 2 45 13 19 10 31 18 25 19
-5 0 5 9 23 20 31 19 40 34 25 43 -5 3 -13 -1 -20 -8z"/>
<path d="M10054 8445 c-18 -15 -18 -15 11 -12 17 1 39 8 50 15 18 10 18 11
-11 12 -16 0 -39 -7 -50 -15z"/>
<path d="M10050 8395 c-25 -14 -25 -14 -2 -15 12 0 22 4 22 9 0 5 10 12 23 14
19 4 19 4 2 5 -11 1 -31 -5 -45 -13z"/>
<path d="M10088 8383 c7 -3 16 -2 19 1 4 3 -2 6 -13 5 -11 0 -14 -3 -6 -6z"/>
<path d="M9380 7635 c0 -31 3 -35 25 -35 18 0 25 5 25 19 0 10 -11 26 -25 35
l-25 16 0 -35z"/>
</g>
</svg>
